<svg width="470" height="467" viewBox="0 0 470 467" fill="none" xmlns="http://www.w3.org/2000/svg">
<path d="M185.678 404.301C185.678 410.882 183.538 419.612 185.678 425.801C186.919 429.392 189.92 431.438 192.678 433.801C192.678 433.801 199.741 438.726 203.678 440.301L212.178 444.801C212.178 444.801 216.953 447.242 219.678 449.301C221.994 451.051 225.178 454.301 225.178 454.301L228.178 457.801L230.678 461.301L233.178 464.301L235.678 460.801L238.178 457.301L241.178 453.801C241.178 453.801 244.362 450.551 246.678 448.801C249.403 446.742 254.178 444.301 254.178 444.301L262.678 439.801C266.614 438.226 273.678 433.301 273.678 433.301C276.435 430.938 279.436 428.892 280.678 425.301C282.817 419.112 280.678 413.301 279.678 405.801" stroke="#00A930" stroke-width="4" stroke-linecap="round" stroke-linejoin="round"/>
<path d="M278.678 406.778C282.202 412.336 285.557 422.245 290.678 426.325C293.65 428.693 296.072 430.327 299.667 430.847C299.667 430.847 308.269 431.223 312.437 430.445L322.025 429.693C322.025 429.693 327.365 429.197 330.769 429.477C333.662 429.715 338.092 430.754 338.092 430.754L342.5 432.103L346.485 433.72L350.203 434.915L350.44 430.62L350.677 426.325L351.336 421.763C351.336 421.763 352.285 417.313 353.303 414.595C354.502 411.396 357.227 406.778 357.227 406.778L361.995 398.426C364.476 394.988 367.804 387.045 367.804 387.045C368.867 383.573 370.306 380.238 369.431 376.54C367.923 370.168 363.202 366.359 359.678 360.801" stroke="#00A930" stroke-width="4" stroke-linecap="round" stroke-linejoin="round"/>
<path d="M359.678 361.159C365.257 364.65 372.527 372.077 378.908 373.546C382.612 374.398 385.937 372.939 389.403 371.855C389.403 371.855 397.325 368.479 400.748 365.978L409.071 361.159C409.071 361.159 413.673 358.405 416.864 357.188C419.576 356.153 424.02 355.177 424.02 355.177L428.579 354.491L432.872 354.228L436.741 353.7L435.1 349.724L433.459 345.748L432.083 341.348C432.083 341.348 431.017 336.925 430.762 334.034C430.462 330.631 430.925 325.289 430.925 325.289L431.619 315.696C432.372 311.524 431.944 302.923 431.944 302.923C431.403 299.332 431.261 295.703 428.875 292.746C424.763 287.65 412.757 285.792 407.178 282.301" stroke="#00A930" stroke-width="4" stroke-linecap="round" stroke-linejoin="round"/>
<path d="M406.678 282.6C413.178 283.801 423.708 284.879 429.847 282.6C433.409 281.277 435.386 278.23 437.686 275.42C437.686 275.42 442.45 268.247 443.935 264.276L448.241 255.676C448.241 255.676 450.573 250.847 452.57 248.076C454.267 245.721 457.444 242.464 457.444 242.464L460.875 239.385L464.318 236.807L467.26 234.239L463.705 231.819L460.149 229.399L456.582 226.479C456.582 226.479 453.261 223.37 451.458 221.094C449.338 218.416 446.79 213.698 446.79 213.698L442.098 205.302C440.435 201.402 435.35 194.452 435.35 194.452C432.925 191.749 430.813 188.795 427.194 187.635C420.958 185.637 414.278 187.928 407.699 188.077" stroke="#00A930" stroke-width="4" stroke-linecap="round" stroke-linejoin="round"/>
<path d="M407.092 189.866C412.855 186.689 421.533 184.347 425.92 179.486C428.466 176.665 428.808 173.05 429.547 169.494C429.547 169.494 430.45 160.93 429.929 156.723L429.766 147.106C429.766 147.106 429.598 141.747 430.086 138.366C430.501 135.493 431.81 131.135 431.81 131.135L433.426 126.818L435.285 122.939L436.705 119.302L432.433 118.802L428.161 118.302L423.647 117.365C423.647 117.365 419.264 116.145 416.613 114.962C413.494 113.57 409.052 110.566 409.052 110.566L401.007 105.295C397.728 102.608 390.004 98.7999 390.004 98.7999C386.604 97.5262 383.364 95.8852 379.619 96.5319C373.167 97.6461 366.941 104.124 361.178 107.301" stroke="#00A930" stroke-width="4" stroke-linecap="round" stroke-linejoin="round"/>
<path d="M361.678 107.801C364.996 102.118 372.606 94.8517 373.879 88.4288C374.618 84.7011 373.057 81.4218 371.868 77.9906C371.868 77.9906 368.252 70.1757 365.646 66.831L360.575 58.659C360.575 58.659 357.682 54.1437 356.367 50.9913C355.249 48.3122 354.138 43.9002 354.138 43.9002L353.312 39.365L352.918 35.082L352.272 31.2307L348.348 32.9927L344.424 34.7546L340.069 36.2645C340.069 36.2645 335.681 37.4655 332.798 37.8092C329.406 38.2136 324.052 37.9136 324.052 37.9136L314.443 37.5138C310.249 36.8887 301.666 37.5807 301.666 37.5807C298.093 38.2313 294.471 38.4841 291.587 40.9597C286.62 45.2253 283.496 55.1175 280.178 60.8009" stroke="#00A930" stroke-width="4" stroke-linecap="round" stroke-linejoin="round"/>
<path d="M280.178 62.3014C281.216 55.8014 283.33 46.8917 281.216 40.6944C279.989 37.0978 276.996 35.0404 274.249 32.6658C274.249 32.6658 267.206 27.7115 263.275 26.1207L254.794 21.5859C254.794 21.5859 250.029 19.1258 247.312 17.0552C245.004 15.2956 241.833 12.0327 241.833 12.0327L238.847 8.52045L236.362 5.01022L233.874 2L231.36 5.48972L228.845 8.97944L225.831 12.4671C225.831 12.4671 222.634 15.7039 220.311 17.4445C217.577 19.4927 212.792 21.9137 212.792 21.9137L204.274 26.3788C200.331 27.9373 193.247 32.8337 193.247 32.8337C190.48 35.1857 187.471 37.2185 186.215 40.8049C184.05 46.9846 186.215 55.8009 188.178 62.3009" stroke="#00A930" stroke-width="4" stroke-linecap="round" stroke-linejoin="round"/>
<path d="M188.278 60.7896C185.03 55.0657 182.582 46.4169 177.667 42.0903C174.815 39.5793 171.195 39.2818 167.631 38.587C167.631 38.587 159.057 37.7892 154.856 38.3625L145.242 38.6436C145.242 38.6436 139.885 38.8775 136.498 38.4312C133.62 38.052 129.247 36.7969 129.247 36.7969L124.911 35.2334L121.009 33.4231L117.354 32.0477L116.907 36.3256L116.46 40.6034L115.578 45.1281C115.578 45.1281 114.413 49.526 113.262 52.1911C111.908 55.3271 108.96 59.8063 108.96 59.8063L103.788 67.915C101.141 71.2273 97.4288 78.997 97.4288 78.997C96.1971 82.4133 94.5961 85.6731 95.2888 89.4095C96.4824 95.8477 103.788 102.801 108.178 107.801" stroke="#00A930" stroke-width="4" stroke-linecap="round" stroke-linejoin="round"/>
<path d="M107.959 107.455C102.381 103.962 96.1182 97.5149 89.7379 96.0429C86.0351 95.1887 82.7089 96.6466 79.2423 97.7289C79.2423 97.7289 71.3188 101.101 67.8947 103.601L59.5691 108.416C59.5691 108.416 54.9661 111.167 51.7743 112.383C49.0618 113.417 44.6174 114.391 44.6174 114.391L40.0588 115.075L35.7655 115.336L31.896 115.862L33.5352 119.839L35.1744 123.816L36.5482 128.216C36.5482 128.216 37.6122 132.639 37.8661 135.531C38.165 138.934 37.6987 144.276 37.6987 144.276L37.0005 153.868C36.2454 158.04 36.6703 166.641 36.6703 166.641C37.2096 170.232 37.3497 173.861 39.7345 176.82C43.8437 181.918 56.6777 186.801 62.6777 188.801" stroke="#00A930" stroke-width="4" stroke-linecap="round" stroke-linejoin="round"/>
<path d="M63.6777 188.301C57.1777 186.801 47.6019 183.997 41.3747 186.021C37.7607 187.196 35.6603 190.159 33.2462 192.871C33.2462 192.871 28.1906 199.842 26.5432 203.749L21.8863 212.164C21.8863 212.164 19.3575 216.893 17.2479 219.579C15.4551 221.862 12.1467 224.986 12.1467 224.986L8.59166 227.92L5.04587 230.355L2 232.799L5.45301 235.363L8.90602 237.928L12.3498 240.992C12.3498 240.992 15.54 244.236 17.2468 246.584C19.2553 249.347 21.6069 254.166 21.6069 254.166L25.9484 262.748C27.4497 266.713 32.2432 273.867 32.2432 273.867C34.555 276.667 36.544 279.706 40.1119 281.014C46.2597 283.268 57.1777 282.301 63.6777 281.014" stroke="#00A930" stroke-width="4" stroke-linecap="round" stroke-linejoin="round"/>
<path d="M62.6777 280.301C56.1777 281.801 47.8349 283.297 43.2945 288.229C40.6594 291.091 40.2644 294.741 39.4653 298.333C39.4653 298.333 38.4344 306.978 38.9135 311.22L38.9578 320.921C38.9578 320.921 39.0612 326.328 38.5202 329.742C38.0604 332.643 36.6689 337.047 36.6689 337.047L34.9635 341.413L33.0172 345.338L31.521 349.017L35.8763 349.494L40.2316 349.972L44.8278 350.889C44.8278 350.889 49.2875 352.092 51.9788 353.269C55.1456 354.654 59.6433 357.656 59.6433 357.656L67.7895 362.924C71.1037 365.614 78.9407 369.408 78.9407 369.408C82.3967 370.671 85.6837 372.307 89.5151 371.631C96.1169 370.466 102.678 364.301 108.178 358.801" stroke="#00A930" stroke-width="4" stroke-linecap="round" stroke-linejoin="round"/>
<path d="M107.727 357.301C102.686 362.801 95.8324 370.391 94.5351 376.809C93.7822 380.534 95.3304 383.819 96.5069 387.255C96.5069 387.255 100.094 395.083 102.687 398.438L107.727 406.629C107.727 406.629 110.603 411.155 111.906 414.313C113.013 416.996 114.107 421.412 114.107 421.412L114.916 425.95L115.294 430.235L115.926 434.089L119.856 432.341L123.787 430.594L128.148 429.101C128.148 429.101 132.541 427.917 135.424 427.584C138.818 427.192 144.171 427.512 144.171 427.512L153.778 427.949C157.969 428.59 166.555 427.93 166.555 427.93C170.13 427.293 173.754 427.054 176.647 424.589C181.631 420.342 184.178 412.301 186.178 405.301" stroke="#00A930" stroke-width="4" stroke-linecap="round" stroke-linejoin="round"/>
<circle cx="235.178" cy="233.801" r="177" stroke="#00A930" stroke-width="4" stroke-linejoin="round"/>
<path d="M386.709 321.801H84.6465L235.678 60.7955L386.709 321.801Z" stroke="#00A930" stroke-width="4" stroke-linejoin="round"/>
<path d="M384.591 146.513L234.81 406.825L84.2622 146.954L384.591 146.513Z" stroke="#00A930" stroke-width="4" stroke-linejoin="round"/>
</svg>
