<svg width="470" height="467" viewBox="0 0 470 467" fill="none" xmlns="http://www.w3.org/2000/svg">
<circle cx="234" cy="235.875" r="153" stroke="#FF0000" stroke-width="4"/>
<rect x="127" y="128.875" width="214" height="214" stroke="#FF0000" stroke-width="4" stroke-linejoin="round"/>
<path d="M130.943 162.375L337.057 162.375L234 340.875L130.943 162.375Z" stroke="#FF0000" stroke-width="4" stroke-linejoin="round"/>
<path d="M125 366.875L126.994 366.725L125 366.875ZM126.5 377.375L128.411 376.787H128.411L126.5 377.375ZM131.5 387.375L129.856 388.515L131.5 387.375ZM139.5 396.375L138.146 397.848H138.146L139.5 396.375ZM229 457.375L227.394 458.568L229 457.375ZM234 464.875L232.3 465.93C232.665 466.518 233.308 466.875 234 466.875C234.691 466.875 235.334 466.518 235.699 465.93L234 464.875ZM127 341.875C127 340.771 126.104 339.875 125 339.875C123.895 339.875 123 340.771 123 341.875H127ZM160.5 409.875L161.492 408.139L161.453 408.116L161.412 408.096L160.5 409.875ZM184.5 421.875L183.556 423.639H183.556L184.5 421.875ZM216.5 442.375L215.207 443.901L216.5 442.375ZM343 366.875L341.005 366.725L343 366.875ZM341.5 377.375L339.588 376.787L341.5 377.375ZM336.5 387.375L338.143 388.515L336.5 387.375ZM328.5 396.375L329.853 397.848L328.5 396.375ZM239 457.375L240.605 458.568L239 457.375ZM345 341.875C345 340.771 344.104 339.875 343 339.875C341.895 339.875 341 340.771 341 341.875H345ZM307.5 409.875L306.587 408.096L306.547 408.116L306.507 408.139L307.5 409.875ZM283.5 421.875L284.443 423.639L283.5 421.875ZM251.5 442.375L252.793 443.901L251.5 442.375ZM123.005 367.026C123.309 371.044 123.287 373.736 124.588 377.963L128.411 376.787C127.276 373.097 127.314 370.968 126.994 366.725L123.005 367.026ZM124.588 377.963C125.946 382.378 127.281 384.801 129.856 388.515L133.143 386.236C130.743 382.773 129.621 380.719 128.411 376.787L124.588 377.963ZM129.856 388.515C132.56 392.415 134.715 394.693 138.146 397.848L140.853 394.903C137.573 391.887 135.634 389.828 133.143 386.236L129.856 388.515ZM227.394 458.568C228.404 459.928 229.626 461.759 230.609 463.274C231.097 464.027 231.521 464.692 231.823 465.169C231.973 465.408 232.093 465.599 232.175 465.73C232.216 465.795 232.248 465.846 232.269 465.88C232.28 465.897 232.288 465.91 232.293 465.918C232.296 465.922 232.297 465.925 232.299 465.927C232.299 465.928 232.3 465.929 232.3 465.93C232.3 465.93 232.3 465.93 232.3 465.93C232.3 465.93 232.3 465.93 232.3 465.93C232.3 465.93 232.3 465.93 234 464.875C235.699 463.82 235.699 463.82 235.699 463.82C235.699 463.82 235.699 463.82 235.699 463.82C235.698 463.82 235.698 463.82 235.698 463.819C235.698 463.819 235.697 463.818 235.696 463.816C235.695 463.814 235.692 463.81 235.69 463.806C235.684 463.796 235.675 463.782 235.664 463.764C235.642 463.728 235.609 463.676 235.566 463.608C235.481 463.472 235.358 463.276 235.204 463.032C234.896 462.545 234.463 461.865 233.964 461.096C232.972 459.568 231.694 457.649 230.605 456.183L227.394 458.568ZM123 341.875C123 349.938 122.376 358.686 123.005 367.026L126.994 366.725C126.378 358.56 127 350.362 127 341.875H123ZM159.507 411.612C163.488 413.887 167.574 415.859 171.611 417.772C175.667 419.695 179.659 421.553 183.556 423.639L185.443 420.112C181.439 417.969 177.339 416.061 173.324 414.158C169.29 412.246 165.327 410.331 161.492 408.139L159.507 411.612ZM183.556 423.639C194.326 429.402 206.11 436.193 215.207 443.901L217.793 440.849C208.348 432.846 196.237 425.888 185.443 420.112L183.556 423.639ZM215.207 443.901C219.815 447.806 223.509 453.336 227.394 458.568L230.605 456.183C226.918 451.217 222.855 445.139 217.793 440.849L215.207 443.901ZM138.146 397.848C144.474 403.664 152.252 407.894 159.587 411.655L161.412 408.096C154.077 404.335 146.741 400.315 140.853 394.903L138.146 397.848ZM341.005 366.725C340.685 370.968 340.723 373.097 339.588 376.787L343.411 377.963C344.712 373.736 344.691 371.044 344.994 367.026L341.005 366.725ZM339.588 376.787C338.378 380.719 337.256 382.773 334.856 386.236L338.143 388.515C340.718 384.801 342.053 382.378 343.411 377.963L339.588 376.787ZM334.856 386.236C332.365 389.828 330.427 391.887 327.146 394.903L329.853 397.848C333.285 394.693 335.44 392.415 338.143 388.515L334.856 386.236ZM237.394 456.183C236.305 457.649 235.027 459.568 234.035 461.096C233.536 461.865 233.103 462.545 232.795 463.032C232.641 463.276 232.518 463.472 232.433 463.608C232.391 463.676 232.358 463.728 232.335 463.764C232.324 463.782 232.316 463.796 232.31 463.806C232.307 463.81 232.305 463.814 232.303 463.816C232.302 463.818 232.302 463.819 232.301 463.819C232.301 463.82 232.301 463.82 232.301 463.82C232.301 463.82 232.301 463.82 232.3 463.82C232.3 463.82 232.3 463.82 234 464.875C235.699 465.93 235.699 465.93 235.699 465.93C235.699 465.93 235.699 465.93 235.699 465.93C235.699 465.93 235.699 465.93 235.699 465.93C235.699 465.929 235.7 465.928 235.701 465.927C235.702 465.925 235.704 465.922 235.706 465.918C235.712 465.91 235.72 465.897 235.73 465.88C235.751 465.846 235.783 465.795 235.824 465.73C235.906 465.599 236.026 465.408 236.176 465.169C236.478 464.692 236.902 464.027 237.39 463.274C238.374 461.759 239.595 459.928 240.605 458.568L237.394 456.183ZM341 341.875C341 350.362 341.621 358.56 341.005 366.725L344.994 367.026C345.623 358.686 345 349.938 345 341.875H341ZM306.507 408.139C302.672 410.331 298.709 412.246 294.675 414.158C290.661 416.061 286.56 417.969 282.556 420.112L284.443 423.639C288.34 421.553 292.333 419.695 296.389 417.772C300.425 415.859 304.511 413.887 308.492 411.612L306.507 408.139ZM282.556 420.112C271.762 425.888 259.652 432.846 250.207 440.849L252.793 443.901C261.889 436.193 273.673 429.402 284.443 423.639L282.556 420.112ZM250.207 440.849C245.145 445.139 241.081 451.217 237.394 456.183L240.605 458.568C244.49 453.336 248.184 447.806 252.793 443.901L250.207 440.849ZM327.146 394.903C321.258 400.315 313.923 404.335 306.587 408.096L308.412 411.655C315.747 407.894 323.525 403.664 329.853 397.848L327.146 394.903Z" fill="#FF0000"/>
<path d="M370.322 344.183L370.15 342.19L370.322 344.183ZM380.805 342.571L380.197 340.666L380.197 340.666L380.805 342.571ZM390.751 337.465L391.908 339.096L390.751 337.465ZM399.666 329.37L401.152 330.707L401.152 330.707L399.666 329.37ZM459.71 239.225L460.919 240.818L459.71 239.225ZM467.156 234.146L468.229 235.834C468.813 235.463 469.163 234.816 469.156 234.125C469.149 233.433 468.784 232.794 468.193 232.436L467.156 234.146ZM345.302 342.449C344.197 342.461 343.311 343.366 343.323 344.47C343.335 345.575 344.24 346.46 345.344 346.449L345.302 342.449ZM412.941 308.227L411.195 307.253L411.172 307.293L411.152 307.334L412.941 308.227ZM424.685 284.101L426.459 285.026L426.459 285.026L424.685 284.101ZM444.844 251.884L446.383 253.161L444.844 251.884ZM368.002 126.195L367.872 128.191L368.002 126.195ZM378.517 127.583L377.949 129.501L378.517 127.583ZM388.57 132.477L389.692 130.821L388.57 132.477ZM397.654 140.38L399.112 139.011L397.654 140.38ZM459.603 229.226L460.778 227.608L459.603 229.226ZM342.982 124.461C341.877 124.473 340.991 125.378 341.003 126.482C341.015 127.587 341.92 128.473 343.024 128.461L342.982 124.461ZM411.377 161.235L409.607 162.167L409.628 162.207L409.651 162.246L411.377 161.235ZM423.632 185.106L425.385 184.144L423.632 185.106ZM444.471 216.886L445.983 215.577L444.471 216.886ZM370.493 346.175C374.508 345.829 377.2 345.822 381.414 344.476L380.197 340.666C376.519 341.84 374.389 341.825 370.15 342.19L370.493 346.175ZM381.414 344.476C385.813 343.071 388.222 341.711 391.908 339.096L389.594 335.834C386.158 338.271 384.116 339.414 380.197 340.666L381.414 344.476ZM391.908 339.096C395.779 336.351 398.035 334.172 401.152 330.707L398.179 328.032C395.198 331.344 393.16 333.305 389.594 335.834L391.908 339.096ZM460.919 240.818C462.268 239.794 464.086 238.553 465.591 237.553C466.338 237.057 466.999 236.626 467.473 236.319C467.71 236.166 467.9 236.044 468.03 235.961C468.095 235.919 468.145 235.887 468.179 235.866C468.196 235.855 468.209 235.847 468.217 235.841C468.221 235.839 468.224 235.837 468.226 235.835C468.227 235.835 468.228 235.834 468.228 235.834C468.229 235.834 468.229 235.834 468.229 235.834C468.229 235.834 468.229 235.834 468.229 235.834C468.229 235.834 468.229 235.834 467.156 234.146C466.083 232.458 466.083 232.458 466.083 232.458C466.083 232.458 466.083 232.458 466.083 232.458C466.083 232.458 466.082 232.459 466.082 232.459C466.081 232.459 466.08 232.46 466.079 232.461C466.077 232.462 466.073 232.464 466.068 232.467C466.059 232.473 466.045 232.482 466.027 232.494C465.992 232.516 465.939 232.55 465.872 232.593C465.737 232.679 465.543 232.804 465.3 232.961C464.816 233.274 464.141 233.714 463.378 234.222C461.86 235.23 459.955 236.528 458.5 237.632L460.919 240.818ZM345.344 346.449C353.406 346.363 362.16 346.894 370.493 346.175L370.15 342.19C361.993 342.893 353.788 342.359 345.302 342.449L345.344 346.449ZM414.688 309.201C416.921 305.196 418.849 301.089 420.72 297.033C422.599 292.957 424.415 288.945 426.459 285.026L422.912 283.176C420.812 287.203 418.948 291.323 417.087 295.358C415.218 299.412 413.346 303.395 411.195 307.253L414.688 309.201ZM426.459 285.026C432.107 274.195 438.772 262.339 446.383 253.161L443.304 250.608C435.401 260.137 428.573 272.321 422.912 283.176L426.459 285.026ZM446.383 253.161C450.239 248.512 455.729 244.758 460.919 240.818L458.5 237.632C453.574 241.372 447.539 245.5 443.304 250.608L446.383 253.161ZM401.152 330.707C406.901 324.318 411.048 316.495 414.731 309.121L411.152 307.334C407.47 314.709 403.528 322.087 398.179 328.032L401.152 330.707ZM367.872 128.191C372.118 128.466 374.247 128.405 377.949 129.501L379.085 125.666C374.843 124.41 372.152 124.46 368.131 124.199L367.872 128.191ZM377.949 129.501C381.894 130.669 383.96 131.769 387.448 134.132L389.692 130.821C385.95 128.286 383.513 126.977 379.085 125.666L377.949 129.501ZM387.448 134.132C391.067 136.585 393.146 138.501 396.196 141.749L399.112 139.011C395.922 135.613 393.62 133.483 389.692 130.821L387.448 134.132ZM458.428 230.844C459.906 231.917 461.838 233.175 463.377 234.151C464.151 234.642 464.835 235.067 465.326 235.37C465.572 235.522 465.769 235.643 465.905 235.726C465.974 235.768 466.027 235.8 466.063 235.822C466.081 235.833 466.095 235.841 466.104 235.847C466.109 235.85 466.113 235.852 466.115 235.854C466.116 235.854 466.117 235.855 466.118 235.856C466.118 235.856 466.119 235.856 466.119 235.856C466.119 235.856 466.119 235.856 466.119 235.856C466.119 235.856 466.119 235.856 467.156 234.146C468.193 232.436 468.193 232.436 468.193 232.436C468.193 232.436 468.193 232.436 468.193 232.436C468.193 232.435 468.192 232.435 468.192 232.435C468.192 232.435 468.191 232.435 468.19 232.434C468.188 232.433 468.185 232.431 468.181 232.428C468.172 232.423 468.159 232.415 468.142 232.405C468.108 232.384 468.057 232.353 467.991 232.313C467.859 232.232 467.667 232.114 467.427 231.966C466.946 231.67 466.276 231.253 465.519 230.772C463.993 229.805 462.149 228.603 460.778 227.608L458.428 230.844ZM343.024 128.461C351.51 128.371 359.702 127.662 367.872 128.191L368.131 124.199C359.784 123.659 351.044 124.375 342.982 124.461L343.024 128.461ZM409.651 162.246C411.884 166.058 413.841 170 415.796 174.013C417.742 178.008 419.693 182.087 421.878 186.069L425.385 184.144C423.258 180.269 421.358 176.297 419.392 172.262C417.435 168.246 415.421 164.181 413.103 160.224L409.651 162.246ZM421.878 186.069C427.769 196.8 434.855 208.836 442.959 218.196L445.983 215.577C438.178 206.563 431.263 194.852 425.385 184.144L421.878 186.069ZM442.959 218.196C447.302 223.212 453.424 227.21 458.428 230.844L460.778 227.608C455.506 223.779 449.937 220.144 445.983 215.577L442.959 218.196ZM396.196 141.749C401.671 147.579 405.768 154.872 409.607 162.167L413.147 160.304C409.308 153.009 404.996 145.277 399.112 139.011L396.196 141.749Z" fill="#FF0000"/>
<path d="M343.458 100L341.464 100.151L343.458 100ZM341.958 89.5L340.047 90.0882L340.047 90.0882L341.958 89.5ZM336.958 79.5L338.602 78.3605L336.958 79.5ZM328.958 70.5L330.312 69.0276L330.312 69.0276L328.958 70.5ZM239.458 9.50001L241.064 8.30767L239.458 9.50001ZM234.458 2.00001L236.157 0.945177C235.793 0.357462 235.15 9.49281e-06 234.458 9.55328e-06C233.766 9.61376e-06 233.124 0.35747 232.759 0.945185L234.458 2.00001ZM341.458 125C341.458 126.105 342.354 127 343.458 127C344.563 127 345.458 126.105 345.458 125L341.458 125ZM307.958 57L306.966 58.7363L307.005 58.7589L307.046 58.7797L307.958 57ZM283.958 45L284.902 43.2366L284.902 43.2366L283.958 45ZM251.958 24.5L253.251 22.9742L251.958 24.5ZM125.458 100L127.453 100.151L125.458 100ZM126.958 89.5L128.87 90.0882L126.958 89.5ZM131.958 79.5L130.315 78.3605L131.958 79.5ZM139.958 70.5L138.605 69.0276L139.958 70.5ZM229.458 9.50001L227.853 8.30767L229.458 9.50001ZM123.458 125C123.458 126.105 124.354 127 125.458 127C126.563 127 127.458 126.105 127.458 125L123.458 125ZM160.958 57L161.871 58.7797L161.911 58.7589L161.951 58.7363L160.958 57ZM184.958 45L184.015 43.2366L184.958 45ZM216.958 24.5L215.665 22.9742L216.958 24.5ZM345.453 99.8495C345.149 95.8317 345.171 93.1397 343.87 88.9118L340.047 90.0882C341.182 93.7782 341.144 95.9075 341.464 100.151L345.453 99.8495ZM343.87 88.9118C342.512 84.4976 341.177 82.0744 338.602 78.3605L335.315 80.6395C337.715 84.102 338.837 86.1561 340.047 90.0882L343.87 88.9118ZM338.602 78.3605C335.898 74.4608 333.743 72.1818 330.312 69.0276L327.605 71.9724C330.885 74.988 332.824 77.0469 335.315 80.6395L338.602 78.3605ZM241.064 8.30767C240.054 6.94766 238.832 5.11652 237.849 3.60134C237.36 2.84873 236.937 2.18319 236.635 1.70605C236.484 1.46758 236.364 1.27645 236.282 1.14536C236.241 1.07982 236.21 1.02931 236.189 0.995409C236.178 0.978464 236.17 0.965669 236.165 0.957231C236.162 0.953012 236.16 0.949877 236.159 0.947862C236.158 0.946855 236.158 0.946123 236.158 0.945673C236.158 0.945452 236.158 0.945299 236.157 0.945215C236.157 0.945169 236.157 0.945162 236.157 0.945139C236.157 0.945146 236.157 0.945177 234.458 2.00001C232.759 3.05484 232.759 3.0549 232.759 3.05499C232.759 3.05503 232.759 3.05513 232.759 3.05523C232.759 3.05544 232.76 3.0557 232.76 3.05605C232.76 3.05673 232.761 3.0577 232.762 3.05895C232.763 3.06145 232.765 3.06507 232.768 3.06978C232.774 3.0792 232.783 3.093 232.794 3.11097C232.816 3.14691 232.849 3.19957 232.892 3.26735C232.976 3.4029 233.1 3.59899 233.254 3.84286C233.562 4.33038 233.994 5.00994 234.494 5.77905C235.486 7.30733 236.764 9.22618 237.853 10.6923L241.064 8.30767ZM345.458 125C345.458 116.938 346.082 108.19 345.453 99.8495L341.464 100.151C342.08 108.315 341.458 116.514 341.458 125L345.458 125ZM308.951 55.2637C304.97 52.9879 300.884 51.0164 296.847 49.1029C292.791 47.1802 288.799 45.3222 284.902 43.2366L283.015 46.7634C287.019 48.9064 291.119 50.8143 295.134 52.7174C299.168 54.6298 303.131 56.544 306.966 58.7363L308.951 55.2637ZM284.902 43.2366C274.132 37.4732 262.348 30.6824 253.251 22.9742L250.665 26.0258C260.11 34.0294 272.221 40.9872 283.015 46.7634L284.902 43.2366ZM253.251 22.9742C248.643 19.0692 244.948 13.5389 241.064 8.30767L237.853 10.6923C241.54 15.6579 245.603 21.7363 250.665 26.0258L253.251 22.9742ZM330.312 69.0276C323.984 63.211 316.206 58.9809 308.871 55.2203L307.046 58.7797C314.381 62.5405 321.717 66.5603 327.605 71.9724L330.312 69.0276ZM127.453 100.151C127.773 95.9075 127.734 93.7782 128.87 90.0882L125.047 88.9118C123.746 93.1397 123.767 95.8317 123.464 99.8495L127.453 100.151ZM128.87 90.0882C130.08 86.1561 131.201 84.102 133.602 80.6395L130.315 78.3605C127.74 82.0744 126.405 84.4977 125.047 88.9118L128.87 90.0882ZM133.602 80.6395C136.093 77.0469 138.031 74.988 141.312 71.9725L138.605 69.0276C135.173 72.1818 133.018 74.4608 130.315 78.3605L133.602 80.6395ZM231.064 10.6923C232.153 9.22618 233.431 7.30732 234.423 5.77905C234.922 5.00993 235.355 4.33037 235.663 3.84285C235.817 3.59899 235.94 3.40289 236.025 3.26734C236.067 3.19956 236.1 3.14691 236.123 3.11096C236.134 3.09299 236.142 3.07919 236.148 3.06977C236.151 3.06506 236.153 3.06144 236.155 3.05895C236.156 3.0577 236.156 3.05673 236.157 3.05604C236.157 3.0557 236.157 3.05543 236.157 3.05522C236.157 3.05512 236.157 3.05502 236.157 3.05498C236.157 3.0549 236.157 3.05483 234.458 2.00001C232.759 0.945185 232.759 0.945162 232.759 0.945147C232.759 0.94517 232.759 0.945177 232.759 0.945223C232.759 0.945307 232.759 0.94546 232.759 0.945681C232.758 0.946131 232.758 0.946863 232.757 0.94787C232.756 0.949885 232.754 0.95302 232.752 0.957239C232.746 0.965677 232.738 0.978472 232.728 0.995417C232.707 1.02931 232.675 1.07983 232.634 1.14537C232.552 1.27646 232.432 1.46759 232.281 1.70606C231.98 2.1832 231.556 2.84873 231.068 3.60134C230.084 5.11653 228.862 6.94766 227.853 8.30767L231.064 10.6923ZM127.458 125C127.458 116.514 126.836 108.315 127.453 100.151L123.464 99.8495C122.834 108.19 123.458 116.938 123.458 125L127.458 125ZM161.951 58.7363C165.786 56.5441 169.748 54.6298 173.783 52.7174C177.797 50.8143 181.897 48.9064 185.902 46.7634L184.015 43.2366C180.117 45.3222 176.125 47.1802 172.069 49.103C168.033 51.0164 163.946 52.9879 159.966 55.2637L161.951 58.7363ZM185.902 46.7634C196.696 40.9873 208.806 34.0294 218.251 26.0259L215.665 22.9742C206.569 30.6824 194.785 37.4732 184.015 43.2366L185.902 46.7634ZM218.251 26.0259C223.313 21.7363 227.377 15.6579 231.064 10.6923L227.853 8.30767C223.968 13.5389 220.273 19.0692 215.665 22.9742L218.251 26.0259ZM141.312 71.9725C147.199 66.5604 154.535 62.5405 161.871 58.7797L160.046 55.2203C152.711 58.9809 144.933 63.211 138.605 69.0276L141.312 71.9725Z" fill="#FF0000"/>
<path d="M100 125.152L100.151 127.146L100 125.152ZM89.5 126.652L90.0882 128.564V128.564L89.5 126.652ZM79.5 131.652L78.3605 130.008L79.5 131.652ZM70.5 139.652L69.0276 138.299L69.0276 138.299L70.5 139.652ZM9.5 229.152L8.30766 227.546L9.5 229.152ZM2 234.152L0.945163 232.453C0.357448 232.818 -4.7464e-06 233.46 -4.77664e-06 234.152C-4.80688e-06 234.844 0.357455 235.486 0.94517 235.851L2 234.152ZM125 127.152C126.105 127.152 127 126.257 127 125.152C127 124.048 126.105 123.152 125 123.152L125 127.152ZM57 160.652L58.7363 161.645L58.7589 161.605L58.7797 161.565L57 160.652ZM45 184.652L43.2366 183.708L43.2366 183.708L45 184.652ZM24.5 216.652L22.9742 215.359L24.5 216.652ZM100 343.152L100.151 341.158L100 343.152ZM89.5 341.652L90.0882 339.741L89.5 341.652ZM79.5 336.652L78.3605 338.296L79.5 336.652ZM70.5 328.652L69.0276 330.006L70.5 328.652ZM9.5 239.152L8.30766 240.758L9.5 239.152ZM125 345.152C126.105 345.152 127 344.257 127 343.152C127 342.048 126.105 341.152 125 341.152L125 345.152ZM57 307.652L58.7797 306.74L58.7589 306.699L58.7363 306.659L57 307.652ZM45 283.652L43.2366 284.596L45 283.652ZM24.5 251.652L22.9742 252.945L24.5 251.652ZM99.8495 123.158C95.8317 123.461 93.1397 123.44 88.9118 124.741L90.0882 128.564C93.7782 127.428 95.9075 127.467 100.151 127.146L99.8495 123.158ZM88.9118 124.741C84.4976 126.099 82.0744 127.434 78.3605 130.008L80.6395 133.296C84.102 130.895 86.1561 129.774 90.0882 128.564L88.9118 124.741ZM78.3605 130.008C74.4608 132.712 72.1818 134.867 69.0276 138.299L71.9724 141.006C74.988 137.725 77.0469 135.787 80.6395 133.296L78.3605 130.008ZM8.30766 227.546C6.94765 228.556 5.1165 229.778 3.60133 230.761C2.84871 231.25 2.18318 231.674 1.70603 231.975C1.46757 232.126 1.27644 232.246 1.14535 232.328C1.07981 232.369 1.02929 232.401 0.995395 232.422C0.97845 232.432 0.965655 232.44 0.957217 232.445C0.952998 232.448 0.949863 232.45 0.947848 232.451C0.946841 232.452 0.946109 232.452 0.945659 232.453C0.945437 232.453 0.945285 232.453 0.945201 232.453C0.945155 232.453 0.945148 232.453 0.945125 232.453C0.945132 232.453 0.945163 232.453 2 234.152C3.05483 235.851 3.05489 235.851 3.05497 235.851C3.05502 235.851 3.05512 235.851 3.05522 235.851C3.05542 235.851 3.05569 235.851 3.05603 235.851C3.05672 235.85 3.05769 235.85 3.05894 235.849C3.06143 235.847 3.06505 235.845 3.06977 235.842C3.07918 235.836 3.09298 235.828 3.11096 235.816C3.1469 235.794 3.19956 235.761 3.26734 235.719C3.40289 235.634 3.59898 235.511 3.84284 235.357C4.33036 235.049 5.00992 234.616 5.77903 234.117C7.30731 233.125 9.22617 231.847 10.6923 230.758L8.30766 227.546ZM125 123.152C116.938 123.152 108.19 122.528 99.8495 123.158L100.151 127.146C108.315 126.53 116.514 127.152 125 127.152L125 123.152ZM55.2637 159.659C52.9879 163.64 51.0164 167.726 49.1029 171.763C47.1802 175.819 45.3222 179.811 43.2366 183.708L46.7634 185.596C48.9063 181.591 50.8143 177.491 52.7174 173.476C54.6298 169.442 56.544 165.479 58.7363 161.645L55.2637 159.659ZM43.2366 183.708C37.4732 194.479 30.6824 206.263 22.9742 215.359L26.0258 217.945C34.0294 208.5 40.9872 196.39 46.7634 185.596L43.2366 183.708ZM22.9742 215.359C19.0692 219.967 13.5389 223.662 8.30766 227.546L10.6923 230.758C15.6579 227.071 21.7363 223.007 26.0258 217.945L22.9742 215.359ZM69.0276 138.299C63.211 144.626 58.9809 152.404 55.2203 159.74L58.7797 161.565C62.5405 154.229 66.5603 146.893 71.9724 141.006L69.0276 138.299ZM100.151 341.158C95.9075 340.838 93.7782 340.876 90.0882 339.741L88.9118 343.564C93.1397 344.865 95.8317 344.843 99.8495 345.146L100.151 341.158ZM90.0882 339.741C86.1561 338.531 84.102 337.409 80.6395 335.008L78.3605 338.296C82.0744 340.871 84.4976 342.205 88.9118 343.564L90.0882 339.741ZM80.6395 335.008C77.0469 332.518 74.9879 330.579 71.9724 327.299L69.0276 330.006C72.1818 333.437 74.4608 335.592 78.3605 338.296L80.6395 335.008ZM10.6923 237.546C9.22617 236.458 7.30731 235.179 5.77903 234.188C5.00991 233.688 4.33036 233.256 3.84284 232.948C3.59897 232.793 3.40288 232.67 3.26733 232.585C3.19955 232.543 3.14689 232.51 3.11095 232.488C3.09297 232.477 3.07917 232.468 3.06976 232.462C3.06504 232.459 3.06143 232.457 3.05893 232.455C3.05768 232.455 3.05671 232.454 3.05603 232.454C3.05568 232.453 3.05542 232.453 3.05521 232.453C3.05511 232.453 3.05501 232.453 3.05497 232.453C3.05488 232.453 3.05482 232.453 2 234.152C0.94517 235.851 0.945147 235.851 0.945132 235.851C0.945155 235.851 0.945163 235.851 0.945208 235.851C0.945292 235.851 0.945445 235.851 0.945666 235.852C0.946116 235.852 0.946849 235.852 0.947856 235.853C0.94987 235.854 0.953006 235.856 0.957225 235.859C0.965663 235.864 0.978457 235.872 0.995402 235.883C1.0293 235.904 1.07981 235.935 1.14536 235.976C1.27645 236.058 1.46758 236.178 1.70604 236.329C2.18318 236.63 2.84872 237.054 3.60133 237.543C5.11651 238.526 6.94765 239.748 8.30766 240.758L10.6923 237.546ZM125 341.152C116.514 341.152 108.315 341.774 100.151 341.158L99.8495 345.146C108.19 345.776 116.938 345.152 125 345.152L125 341.152ZM58.7363 306.659C56.544 302.825 54.6298 298.862 52.7174 294.828C50.8143 290.813 48.9063 286.713 46.7634 282.708L43.2366 284.596C45.3222 288.493 47.1802 292.485 49.1029 296.541C51.0164 300.578 52.9879 304.664 55.2637 308.645L58.7363 306.659ZM46.7634 282.708C40.9872 271.915 34.0294 259.804 26.0258 250.359L22.9742 252.945C30.6824 262.042 37.4732 273.826 43.2366 284.596L46.7634 282.708ZM26.0258 250.359C21.7363 245.297 15.6579 241.234 10.6923 237.546L8.30766 240.758C13.5389 244.642 19.0692 248.337 22.9742 252.945L26.0258 250.359ZM71.9724 327.299C66.5603 321.411 62.5405 314.075 58.7797 306.74L55.2203 308.565C58.9809 315.9 63.211 323.678 69.0276 330.006L71.9724 327.299Z" fill="#FF0000"/>
</svg>
