<svg width="476" height="469" viewBox="0 0 476 469" fill="none" xmlns="http://www.w3.org/2000/svg">
<circle cx="235.5" cy="235.5" r="171.5" stroke="#FFF700" stroke-width="4"/>
<path d="M88.7087 150.75L382.291 150.75L235.5 405L88.7087 150.75Z" stroke="#FFF700" stroke-width="4" stroke-linejoin="round"/>
<path d="M183 399C183 399 182.443 404.501 182 407.5C181.335 412 180.5 413 180.5 417.5C180.5 421.454 181.834 423.692 184 427C189.337 435.151 200.449 440.42 209 444C215.124 447.062 219.89 449.894 225 454.5C227.461 456.719 231 460.5 231 460.5L235.5 466.5M290.5 399L291 407C291 407 291.681 413.155 291 417C290.31 420.893 289.666 423.192 287.5 426.5C282.162 434.651 271.051 439.92 262.5 443.5C256.375 446.562 251.61 449.394 246.5 454C244.038 456.219 240.5 460 240.5 460L236 466" stroke="#FFF700" stroke-width="4" stroke-linecap="round"/>
<path d="M290.5 399.5C292.11 403.511 291.975 405.52 294.122 409.271C296.062 412.66 297.275 414.601 300.13 417.265C303.02 419.963 304.916 421.414 308.635 422.757C317.799 426.066 329.847 423.603 338.834 421.328C345.569 420.096 351.08 419.498 357.933 420.109C361.233 420.404 366.334 421.301 366.334 421.301L373.536 423.394M375.951 335.892L382.157 342.486C382.157 342.486 386.4 346.997 388.165 350.48C389.953 354.007 390.819 356.232 391.075 360.177C391.704 369.9 385.987 380.787 381.302 388.787C378.246 394.914 376.138 400.041 374.82 406.793C374.185 410.045 373.628 415.194 373.628 415.194L373.635 422.694" stroke="#FFF700" stroke-width="4" stroke-linecap="round"/>
<path d="M375.5 336L384.096 341.007C384.096 341.007 389.708 343.624 393.569 344.21C397.478 344.804 399.863 344.931 403.69 343.938C413.121 341.493 421.672 332.655 427.802 325.702C432.665 320.881 436.875 317.274 442.875 313.908C445.765 312.287 450.481 310.147 450.481 310.147L457.606 307.806M408.5 235L419.021 236.17C419.021 236.17 425.069 237.496 428.494 239.374C431.961 241.274 433.932 242.621 436.372 245.732C442.383 253.4 443.815 265.614 444.467 274.861C445.406 281.644 446.563 287.065 449.288 293.381C450.601 296.424 453.05 300.987 453.05 300.987L457.292 307.172" stroke="#FFF700" stroke-width="4" stroke-linecap="round"/>
<path d="M409 234.145C409 234.145 414.024 234.567 417.197 234.145C421.068 233.63 423.285 233.014 426.768 231.247C430.294 229.459 432.308 228.177 434.846 225.145C441.101 217.675 442.924 205.513 443.874 196.292C445.03 189.543 446.36 184.161 449.287 177.936C450.697 174.937 453.291 170.455 453.291 170.455L457.73 164.409M376 134.5C374 136 384.702 128.53 384.702 128.53C384.702 128.53 390.395 126.094 394.273 125.632C398.199 125.165 400.586 125.115 404.379 126.23C413.727 128.977 421.989 138.085 427.894 145.232C432.599 150.206 436.69 153.946 442.579 157.503C445.416 159.216 450.06 161.507 450.06 161.507L457.107 164.076" stroke="#FFF700" stroke-width="4" stroke-linecap="round"/>
<path d="M376 135.5L383.49 128.432C383.49 128.432 387.792 123.978 389.604 120.518C391.438 117.016 392.334 114.803 392.643 110.861C393.402 101.148 387.83 90.1845 383.253 82.1236C380.278 75.9559 378.239 70.8014 377.011 64.0324C376.419 60.772 375.931 55.6161 375.931 55.6161L376.038 48.1169M291.5 71.5001L295.742 61.2698C295.742 61.2698 298.966 55.9827 301.856 53.3564C304.782 50.6975 306.697 49.2717 310.434 47.9786C319.64 44.792 331.655 47.4158 340.61 49.8104C347.329 51.1315 352.831 51.8037 359.691 51.2834C362.996 51.0328 368.108 50.2037 368.108 50.2037L375.337 48.2069" stroke="#FFF700" stroke-width="4" stroke-linecap="round"/>
<path d="M293 72.5001L294.803 61.0001C294.803 61.0001 295.484 54.8455 294.803 51.0001C294.113 47.107 293.469 44.8077 291.303 41.5001C285.965 33.3496 274.853 28.0804 266.303 24.5001C260.178 21.4379 255.413 18.6058 250.303 14.0001C247.841 11.7817 244.303 8.00013 244.303 8.00013L239.803 2.00013M185.303 70.5001L184.303 61.5001C184.303 61.5001 183.621 55.3455 184.303 51.5001C184.993 47.607 185.637 45.3078 187.803 42.0001C193.14 33.8496 204.252 28.5804 212.803 25.0001C218.927 21.9379 223.692 19.1058 228.803 14.5001C231.264 12.2817 234.803 8.50013 234.803 8.50013L239.303 2.50013" stroke="#FFF700" stroke-width="4" stroke-linecap="round"/>
<path d="M186 70.0001L181.856 61.0497C181.856 61.0497 178.658 55.7469 175.781 53.1064C172.868 50.4331 170.959 48.9979 167.229 47.6864C158.038 44.4546 146.011 47.0194 137.044 49.3699C130.319 50.6579 124.813 51.3031 117.956 50.7491C114.653 50.4823 109.545 49.628 109.545 49.628L102.326 47.5957M98 132.5L94.3856 128.574C94.3856 128.574 90.1055 124.099 88.3108 120.63C86.4938 117.119 85.6086 114.901 85.3199 110.958C84.6083 101.241 90.2338 90.3057 94.851 82.2674C97.8556 76.1145 99.9202 70.9701 101.182 64.2072C101.789 60.9496 102.303 55.7963 102.303 55.7963L102.232 48.2966" stroke="#FFF700" stroke-width="4" stroke-linecap="round"/>
<path d="M97.9011 132.714L89.6197 129.051C89.6197 129.051 83.9557 126.548 80.0836 126.04C76.1634 125.526 73.7769 125.448 69.9706 126.518C60.5913 129.154 52.2214 138.164 46.2331 145.24C41.4692 150.159 37.3339 153.85 31.4035 157.337C28.5469 159.017 23.8756 161.253 23.8756 161.253L16.7992 163.737M63 236L56.831 234.575C56.831 234.575 50.7567 233.372 47.2949 231.565C43.7901 229.735 41.7914 228.428 39.2892 225.367C33.1236 217.823 31.4441 205.641 30.604 196.409C29.5276 189.647 28.2614 184.25 25.4078 177.99C24.0334 174.975 21.4924 170.462 21.4924 170.462L17.1255 164.365" stroke="#FFF700" stroke-width="4" stroke-linecap="round"/>
<path d="M64 236.5L56.3868 238.132C56.3868 238.132 50.3103 239.324 46.8451 241.125C43.3369 242.948 41.3357 244.251 38.8278 247.307C32.6481 254.839 30.9456 267.019 30.0883 276.249C28.9992 283.009 27.7228 288.403 24.8576 294.658C23.4774 297.67 20.928 302.178 20.928 302.178L16.5497 308.268M98.5 339.5L89.9316 343.419C89.9316 343.419 84.2629 345.911 80.3899 346.411C76.4688 346.918 74.0821 346.991 70.2779 345.914C60.9035 343.261 52.5506 334.235 46.5755 327.147C41.8209 322.22 37.6925 318.521 31.7686 315.023C28.9152 313.338 24.2481 311.093 24.2481 311.093L17.1764 308.595" stroke="#FFF700" stroke-width="4" stroke-linecap="round"/>
<path d="M98.5 340L93.5745 344.79C93.5745 344.79 89.343 349.311 87.586 352.798C85.8072 356.329 84.9461 358.556 84.7 362.503C84.0937 372.226 89.8373 383.101 94.5412 391.088C97.6123 397.208 99.7325 402.33 101.067 409.079C101.71 412.33 102.279 417.477 102.279 417.477L102.29 424.977M183 399.5C183 399.5 182.5 404 181.5 409C180.734 412.83 179.229 415.899 176.381 418.57C173.497 421.275 171.604 422.731 167.889 424.083C158.733 427.414 146.679 424.979 137.687 422.726C130.948 421.511 125.436 420.926 118.585 421.554C115.285 421.856 110.187 422.766 110.187 422.766L102.99 424.876" stroke="#FFF700" stroke-width="4" stroke-linecap="round"/>
</svg>
