<svg width="466" height="472" viewBox="0 0 466 472" fill="none" xmlns="http://www.w3.org/2000/svg">
<path d="M232.97 418L76.4697 145H389.47L232.97 418Z" stroke="#0CDAD0" stroke-width="4" stroke-linecap="round" stroke-linejoin="round"/>
<path d="M232.97 50C334.289 50 416.47 133.25 416.47 236C416.47 338.75 334.289 422 232.97 422C131.651 422 49.4697 338.75 49.4697 236C49.4697 133.25 131.651 50 232.97 50Z" stroke="#0CDAD0" stroke-width="4" stroke-linecap="round" stroke-linejoin="round"/>
<path d="M233.004 470L225.004 462.5C225.004 462.5 219.06 457.717 215.004 455C211.22 452.466 205.004 449 205.004 449C205.004 449 200.201 446.194 198.004 443.5C196.565 441.735 195.711 440.665 195.004 438.5C194.274 436.265 194.504 432.5 194.504 432.5L195.004 425.5L195.504 420" stroke="#0CDAD0" stroke-width="4" stroke-linecap="round" stroke-linejoin="round"/>
<path d="M233.504 470L241.504 462.5C241.504 462.5 247.448 457.717 251.504 455C255.288 452.466 261.504 449 261.504 449C261.504 449 266.306 446.194 268.504 443.5C269.943 441.735 270.797 440.665 271.504 438.5C272.234 436.265 272.004 432.5 272.004 432.5L271.504 425.5L271.004 420" stroke="#0CDAD0" stroke-width="4" stroke-linecap="round" stroke-linejoin="round"/>
<path d="M323.281 450.173L313.01 446.33C313.01 446.33 305.683 444.203 300.894 443.257C296.426 442.374 289.355 441.568 289.355 441.568C289.355 441.568 283.842 440.827 280.777 439.187C278.77 438.112 277.569 437.453 276.084 435.727C274.55 433.945 273.313 430.381 273.313 430.381L271.08 423.728L269.424 418.46" stroke="#0CDAD0" stroke-width="4" stroke-linecap="round" stroke-linejoin="round"/>
<path d="M323.742 449.98L328.239 439.979C328.239 439.979 331.884 433.276 334.582 429.207C337.098 425.412 341.502 419.82 341.502 419.82C341.502 419.82 344.854 415.382 345.845 412.05C346.494 409.867 346.871 408.55 346.689 406.28C346.502 403.936 344.841 400.55 344.841 400.55L341.685 394.282L339.107 389.398" stroke="#0CDAD0" stroke-width="4" stroke-linecap="round" stroke-linejoin="round"/>
<path d="M399.307 399.666L388.364 400.382C388.364 400.382 380.81 401.453 376.055 402.558C371.619 403.589 364.841 405.759 364.841 405.759C364.841 405.759 359.511 407.348 356.042 407.112C353.771 406.957 352.405 406.849 350.342 405.885C348.211 404.891 345.62 402.151 345.62 402.151L340.85 397.002L337.176 392.879" stroke="#0CDAD0" stroke-width="4" stroke-linecap="round" stroke-linejoin="round"/>
<path d="M399.648 399.301L399.639 388.335C399.639 388.335 400.209 380.726 400.997 375.909C401.732 371.414 403.449 364.508 403.449 364.508C403.449 364.508 404.682 359.084 404.217 355.639C403.912 353.382 403.714 352.027 402.616 350.032C401.483 347.972 398.577 345.567 398.577 345.567L393.125 341.148L388.767 337.755" stroke="#0CDAD0" stroke-width="4" stroke-linecap="round" stroke-linejoin="round"/>
<path d="M447.163 323.735L437.24 328.401C437.24 328.401 430.6 332.16 426.578 334.926C422.826 337.507 417.31 342.005 417.31 342.005C417.31 342.005 412.929 345.432 409.614 346.48C407.443 347.166 406.133 347.565 403.86 347.422C401.513 347.275 398.099 345.672 398.099 345.672L391.778 342.623L386.852 340.128" stroke="#0CDAD0" stroke-width="4" stroke-linecap="round" stroke-linejoin="round"/>
<path d="M447.348 323.271L443.331 313.067C443.331 313.067 441.08 305.777 440.053 301.005C439.094 296.552 438.168 289.496 438.168 289.496C438.168 289.496 437.333 283.997 435.641 280.96C434.532 278.971 433.852 277.782 432.101 276.326C430.293 274.823 426.71 273.646 426.71 273.646L420.02 271.527L414.724 269.961" stroke="#0CDAD0" stroke-width="4" stroke-linecap="round" stroke-linejoin="round"/>
<path d="M463.995 236.719L456.386 244.615C456.386 244.615 451.521 250.492 448.749 254.511C446.163 258.259 442.612 264.427 442.612 264.427C442.612 264.427 439.74 269.19 437.016 271.351C435.232 272.766 434.15 273.605 431.975 274.282C429.73 274.98 425.969 274.699 425.969 274.699L418.977 274.103L413.484 273.527" stroke="#0CDAD0" stroke-width="4" stroke-linecap="round" stroke-linejoin="round"/>
<path d="M464.002 236.219L456.613 228.116C456.613 228.116 451.912 222.107 449.251 218.014C446.769 214.196 443.389 207.932 443.389 207.932C443.389 207.932 440.65 203.092 437.986 200.857C436.242 199.394 435.183 198.525 433.028 197.789C430.803 197.029 427.036 197.206 427.036 197.206L420.029 197.61L414.523 198.034" stroke="#0CDAD0" stroke-width="4" stroke-linecap="round" stroke-linejoin="round"/>
<path d="M2.00689 236.719L9.61628 244.615C9.61628 244.615 14.481 250.492 17.2532 254.511C19.8395 258.259 23.3902 264.427 23.3902 264.427C23.3902 264.427 26.2621 269.19 28.9861 271.351C30.7703 272.766 31.8526 273.605 34.0269 274.282C36.2719 274.98 40.0332 274.699 40.0332 274.699L47.0256 274.103L52.5182 273.527" stroke="#0CDAD0" stroke-width="4" stroke-linecap="round" stroke-linejoin="round"/>
<path d="M2.00001 236.219L9.3892 228.116C9.3892 228.116 14.0903 222.107 16.7509 218.014C19.233 214.196 22.6127 207.932 22.6127 207.932C22.6127 207.932 25.3523 203.092 28.0158 200.857C29.7604 199.394 30.8193 198.525 32.9741 197.789C35.199 197.029 38.9666 197.206 38.9666 197.206L45.9728 197.61L51.4792 198.034" stroke="#0CDAD0" stroke-width="4" stroke-linecap="round" stroke-linejoin="round"/>
<path d="M18.5218 326.296L28.5266 330.785C28.5266 330.785 35.2322 334.425 39.3027 337.12C43.1002 339.634 48.6948 344.033 48.6948 344.033C48.6948 344.033 53.1357 347.382 56.4687 348.37C58.6518 349.018 59.9691 349.393 62.2388 349.21C64.5825 349.022 67.9676 347.358 67.9676 347.358L74.2334 344.197L79.1153 341.615" stroke="#0CDAD0" stroke-width="4" stroke-linecap="round" stroke-linejoin="round"/>
<path d="M18.329 325.835L22.164 315.561C22.164 315.561 24.2853 308.232 25.2279 303.443C26.1072 298.974 26.9077 291.902 26.9077 291.902C26.9077 291.902 27.6448 286.389 29.2831 283.323C30.3561 281.314 31.0147 280.113 32.7395 278.627C34.5205 277.092 38.0827 275.852 38.0827 275.852L44.7341 273.614L50.0016 271.954" stroke="#0CDAD0" stroke-width="4" stroke-linecap="round" stroke-linejoin="round"/>
<path d="M69.5651 401.805L80.517 402.358C80.517 402.358 88.0864 403.317 92.8572 404.35C97.3081 405.315 104.118 407.384 104.118 407.384C104.118 407.384 109.471 408.893 112.936 408.605C115.205 408.416 116.569 408.288 118.617 407.294C120.733 406.267 123.283 403.489 123.283 403.489L127.975 398.27L131.587 394.092" stroke="#0CDAD0" stroke-width="4" stroke-linecap="round" stroke-linejoin="round"/>
<path d="M69.218 401.446L69.0636 390.481C69.0636 390.481 68.3808 382.882 67.521 378.076C66.7188 373.593 64.8985 366.713 64.8985 366.713C64.8985 366.713 63.5848 361.308 63.9986 357.856C64.2697 355.596 64.4476 354.237 65.5154 352.226C66.6179 350.149 69.4873 347.701 69.4873 347.701L74.8733 343.202L79.1794 339.744" stroke="#0CDAD0" stroke-width="4" stroke-linecap="round" stroke-linejoin="round"/>
<path d="M143.845 451.814L154.265 448.399C154.265 448.399 161.674 446.576 166.498 445.829C170.999 445.132 178.097 444.619 178.097 444.619C178.097 444.619 183.636 444.106 186.766 442.594C188.816 441.603 190.043 440.994 191.598 439.33C193.205 437.613 194.588 434.104 194.588 434.104L197.094 427.549L198.966 422.353" stroke="#0CDAD0" stroke-width="4" stroke-linecap="round" stroke-linejoin="round"/>
<path d="M143.392 451.602L139.312 441.424C139.312 441.424 135.947 434.576 133.42 430.399C131.062 426.503 126.894 420.735 126.894 420.735C126.894 420.735 123.728 416.161 122.875 412.791C122.317 410.583 121.995 409.252 122.27 406.992C122.554 404.657 124.353 401.343 124.353 401.343L127.765 395.21L130.543 390.437" stroke="#0CDAD0" stroke-width="4" stroke-linecap="round" stroke-linejoin="round"/>
<path d="M17.5435 146.924L21.3165 157.22C21.3165 157.22 23.3934 164.562 24.307 169.357C25.1593 173.831 25.9171 180.907 25.9171 180.907C25.9171 180.907 26.6208 186.425 28.2405 189.501C29.3014 191.516 29.9527 192.721 31.6686 194.218C33.4402 195.764 36.9949 197.025 36.9949 197.025L43.6326 199.303L48.89 200.995" stroke="#0CDAD0" stroke-width="4" stroke-linecap="round" stroke-linejoin="round"/>
<path d="M17.7391 146.464L27.7709 142.035C27.7709 142.035 34.4984 138.436 38.5851 135.766C42.3978 133.275 48.0188 128.91 48.0188 128.91C48.0188 128.91 52.4799 125.587 55.8188 124.619C58.0058 123.985 59.3253 123.617 61.5939 123.814C63.9364 124.017 67.3114 125.701 67.3114 125.701L73.558 128.899L78.4241 131.511" stroke="#0CDAD0" stroke-width="4" stroke-linecap="round" stroke-linejoin="round"/>
<path d="M446.383 149.248L442.387 159.46C442.387 159.46 440.15 166.754 439.132 171.529C438.183 175.983 437.271 183.041 437.271 183.041C437.271 183.041 436.447 188.542 434.761 191.582C433.656 193.573 432.979 194.764 431.231 196.223C429.426 197.73 425.844 198.913 425.844 198.913L419.158 201.046L413.866 202.623" stroke="#0CDAD0" stroke-width="4" stroke-linecap="round" stroke-linejoin="round"/>
<path d="M446.198 148.784L436.265 144.138C436.265 144.138 429.618 140.392 425.59 137.634C421.833 135.06 416.308 130.574 416.308 130.574C416.308 130.574 411.921 127.155 408.604 126.114C406.431 125.432 405.12 125.036 402.847 125.183C400.501 125.335 397.09 126.945 397.09 126.945L390.775 130.007L385.853 132.512" stroke="#0CDAD0" stroke-width="4" stroke-linecap="round" stroke-linejoin="round"/>
<path d="M396.282 69.6442L396.952 80.5896C396.952 80.5896 397.992 88.1483 399.077 92.9077C400.089 97.348 402.231 104.135 402.231 104.135C402.231 104.135 403.798 109.472 403.547 112.939C403.383 115.211 403.269 116.576 402.297 118.635C401.293 120.761 398.542 123.341 398.542 123.341L393.374 128.089L389.235 131.746" stroke="#0CDAD0" stroke-width="4" stroke-linecap="round" stroke-linejoin="round"/>
<path d="M395.919 69.3011L384.953 69.2645C384.953 69.2645 377.347 68.6633 372.532 67.8551C368.041 67.1011 361.142 65.3549 361.142 65.3549C361.142 65.3549 355.723 64.0992 352.276 64.5501C350.018 64.8455 348.662 65.0379 346.662 66.1273C344.597 67.252 342.18 70.1476 342.18 70.1476L337.739 75.5815L334.328 79.9246" stroke="#0CDAD0" stroke-width="4" stroke-linecap="round" stroke-linejoin="round"/>
<path d="M323.588 19.6008L328.094 29.5982C328.094 29.5982 331.745 36.2978 334.446 40.3639C336.966 44.1573 341.375 49.7446 341.375 49.7446C341.375 49.7446 344.731 54.18 345.725 57.5113C346.376 59.6934 346.754 61.01 346.575 63.2801C346.39 65.6241 344.732 69.0119 344.732 69.0119L341.581 75.2829L339.007 80.169" stroke="#0CDAD0" stroke-width="4" stroke-linecap="round" stroke-linejoin="round"/>
<path d="M323.127 19.4087L312.86 23.2607C312.86 23.2607 305.534 25.394 300.746 26.3444C296.279 27.2311 289.208 28.0432 289.208 28.0432C289.208 28.0432 283.697 28.7894 280.633 30.4327C278.626 31.509 277.426 32.1696 275.943 33.8969C274.41 35.6804 273.176 39.2446 273.176 39.2446L270.949 45.8997L269.298 51.1698" stroke="#0CDAD0" stroke-width="4" stroke-linecap="round" stroke-linejoin="round"/>
<path d="M233.504 2.00001L241.504 9.50001C241.504 9.50001 247.448 14.2834 251.504 17C255.288 19.5345 261.504 23 261.504 23C261.504 23 266.306 25.806 268.504 28.5C269.943 30.2646 270.797 31.3353 271.504 33.5C272.234 35.7352 272.004 39.5 272.004 39.5L271.504 46.5L271.004 52" stroke="#0CDAD0" stroke-width="4" stroke-linecap="round" stroke-linejoin="round"/>
<path d="M233.004 2.00001L225.004 9.50001C225.004 9.50001 219.06 14.2834 215.004 17C211.22 19.5345 205.004 23 205.004 23C205.004 23 200.201 25.806 198.004 28.5C196.565 30.2646 195.711 31.3353 195.004 33.5C194.274 35.7352 194.504 39.5 194.504 39.5L195.004 46.5L195.504 52" stroke="#0CDAD0" stroke-width="4" stroke-linecap="round" stroke-linejoin="round"/>
<path d="M144.375 21.1169L154.676 24.8773C154.676 24.8773 162.02 26.9454 166.816 27.8531C171.291 28.7 178.369 29.4492 178.369 29.4492C178.369 29.4492 183.887 30.1462 186.965 31.7622C188.981 32.8207 190.187 33.4705 191.686 35.1845C193.234 36.9543 194.5 40.5074 194.5 40.5074L196.786 47.1424L198.484 52.3977" stroke="#0CDAD0" stroke-width="4" stroke-linecap="round" stroke-linejoin="round"/>
<path d="M143.915 21.313L139.499 31.3502C139.499 31.3502 135.907 38.082 133.242 42.1719C130.756 45.9876 126.398 51.6139 126.398 51.6139C126.398 51.6139 123.081 56.079 122.117 59.4191C121.485 61.6069 121.119 62.9268 121.318 65.1952C121.524 67.5375 123.212 70.9104 123.212 70.9104L126.418 77.1531L129.036 82.0161" stroke="#0CDAD0" stroke-width="4" stroke-linecap="round" stroke-linejoin="round"/>
<path d="M69.4607 69.8577L80.4248 69.66C80.4248 69.66 88.0212 68.9471 92.823 68.0683C97.3029 67.2485 104.176 65.4011 104.176 65.4011C104.176 65.4011 109.575 64.0659 113.029 64.4662C115.291 64.7283 116.65 64.9008 118.665 65.9607C120.746 67.055 123.205 69.9147 123.205 69.9147L127.726 75.2828L131.201 79.5753" stroke="#0CDAD0" stroke-width="4" stroke-linecap="round" stroke-linejoin="round"/>
<path d="M69.1022 70.2061L68.5928 81.1602C68.5928 81.1602 67.6642 88.7333 66.6493 93.5082C65.7024 97.9629 63.6603 104.78 63.6603 104.78C63.6603 104.78 62.1722 110.14 62.4741 113.603C62.6718 115.872 62.8056 117.235 63.8077 119.28C64.8424 121.391 67.631 123.931 67.631 123.931L72.8685 128.602L77.0604 132.197" stroke="#0CDAD0" stroke-width="4" stroke-linecap="round" stroke-linejoin="round"/>
<circle cx="233.47" cy="236" r="91" stroke="#0CDAD0" stroke-width="4" stroke-linecap="round" stroke-linejoin="round"/>
</svg>
