<svg width="483" height="486" viewBox="0 0 483 486" fill="none" xmlns="http://www.w3.org/2000/svg">
<circle cx="241.563" cy="239.235" r="79" stroke="#282828" stroke-width="4" stroke-linejoin="round"/>
<path d="M162.563 229.235C162.563 229.235 155.759 230.024 151.563 231.235C147.104 232.521 144.616 233.473 140.563 235.735C137.016 237.715 132.063 241.735 132.063 241.735C132.063 241.735 127.359 246.461 125.563 250.235C123.752 254.041 123.671 256.564 123.063 260.735C122.078 267.497 123.063 278.235 123.063 278.235C123.063 278.235 123.689 289.537 123.063 296.735C122.791 299.871 122.826 301.68 122.063 304.735C121.089 308.64 118.063 314.235 118.063 314.235M214.501 313.779C214.501 313.779 210.711 319.486 207.73 322.676C204.561 326.067 202.585 327.853 198.732 330.439C195.358 332.704 189.529 335.295 189.529 335.295C189.529 335.295 183.183 337.344 179.006 337.233C174.792 337.122 172.507 336.05 168.514 334.7C162.04 332.512 152.917 326.765 152.917 326.765C152.917 326.765 143.127 321.082 136.428 318.376C133.509 317.196 131.913 316.345 128.844 315.639C124.921 314.737 118.563 314.896 118.563 314.896" stroke="#282828" stroke-width="4" stroke-linecap="round"/>
<path d="M125.96 445.251C125.96 445.251 126.048 438.892 125.101 434.979C124.361 431.919 123.492 430.332 122.279 427.427C119.497 420.759 113.705 411.034 113.705 411.034C113.705 411.034 112.254 408.787 110.518 405.735M126.71 445.606C126.71 445.606 132.269 442.517 136.164 441.499C139.21 440.702 141.019 440.716 144.152 440.409C151.342 439.702 162.651 440.2 162.651 440.2C162.651 440.2 164.697 440.364 167.563 440.462" stroke="#282828" stroke-width="4" stroke-linecap="round"/>
<path d="M242.246 476.783C242.246 476.783 239.125 471.242 236.34 468.335C234.162 466.062 232.613 465.127 230.104 463.225C224.348 458.86 214.451 453.364 214.451 453.364C214.451 453.364 212.068 452.151 209.032 450.386M243.073 476.713C243.073 476.713 246.327 471.248 249.181 468.41C251.414 466.19 252.984 465.293 255.538 463.452C261.399 459.227 271.425 453.972 271.425 453.972C271.425 453.972 275.036 451.743 277.564 450.386" stroke="#282828" stroke-width="4" stroke-linecap="round"/>
<path d="M361.811 444.179C361.811 444.179 356.366 440.893 352.511 439.734C349.496 438.828 347.688 438.778 344.567 438.357C337.407 437.392 326.088 437.483 326.088 437.483C326.088 437.483 325.075 438.4 321.564 438.357M362.496 443.711C362.496 443.711 362.637 437.352 363.724 433.476C364.574 430.445 365.5 428.891 366.816 426.031C369.836 419.468 375.975 409.957 375.975 409.957C375.975 409.957 378.032 406.16 379.563 403.735" stroke="#282828" stroke-width="4" stroke-linecap="round"/>
<path d="M442.341 357.09C442.341 357.09 436.008 357.681 432.219 359.04C429.255 360.102 427.771 361.135 425.011 362.651C418.678 366.128 409.626 372.925 409.626 372.925C409.626 372.925 405.413 375.683 402.563 377.735M442.614 356.307C442.614 356.307 438.95 351.108 437.522 347.345C436.405 344.401 436.226 342.601 435.586 339.518C434.117 332.444 433.405 321.147 433.405 321.147C433.405 321.147 433.614 318.596 433.405 315.735" stroke="#282828" stroke-width="4" stroke-linecap="round"/>
<path d="M473.269 241.207C473.269 241.207 467.582 244.054 464.543 246.694C462.166 248.759 461.157 250.26 459.134 252.673C454.493 258.21 448.522 267.826 448.522 267.826C448.522 267.826 448.975 267.789 447.064 270.735M473.239 240.378C473.239 240.378 467.94 236.862 465.244 233.872C463.136 231.534 462.317 229.921 460.602 227.28C456.668 221.221 451.909 210.95 451.909 210.95C451.909 210.95 449.754 207.325 448.522 204.735" stroke="#282828" stroke-width="4" stroke-linecap="round"/>
<path d="M441.878 123.272C441.878 123.272 438.94 128.913 438.026 132.833C437.312 135.899 437.375 137.707 437.151 140.848C436.638 148.054 437.439 159.345 437.439 159.345C437.439 159.345 437.848 163.728 438.026 167.235M441.368 122.618C441.368 122.618 435.013 122.876 431.076 122.035C427.997 121.377 426.388 120.551 423.451 119.417C416.711 116.815 406.834 111.286 406.834 111.286C406.834 111.286 404.081 109.111 401.564 107.735" stroke="#282828" stroke-width="4" stroke-linecap="round"/>
<path d="M357.526 39.3108C357.526 39.3108 357.535 45.6708 358.54 49.5685C359.327 52.6172 360.22 54.1901 361.477 57.0771C364.36 63.7016 370.3 73.3378 370.3 73.3378C370.3 73.3378 370.781 73.7091 372.563 76.7347M356.771 38.9676C356.771 38.9676 351.258 42.1399 347.38 43.2178C344.346 44.0608 342.538 44.0739 339.409 44.4293C332.231 45.2448 320.916 44.9192 320.916 44.9192C320.916 44.9192 318.868 44.7858 316 44.7321" stroke="#282828" stroke-width="4" stroke-linecap="round"/>
<path d="M242.312 7.84445C242.312 7.84445 245.607 13.2846 248.482 16.1016C250.731 18.305 252.309 19.19 254.877 21.0122C260.768 25.1934 270.833 30.3733 270.833 30.3733C270.833 30.3733 273.974 32.0655 277.064 33.7346M241.488 7.94082C241.488 7.94082 238.409 13.5055 235.646 16.4326C233.484 18.7221 231.942 19.6681 229.448 21.5891C223.724 25.9972 213.869 31.5661 213.869 31.5661C213.869 31.5661 211.047 33.2984 208.564 34.7346" stroke="#282828" stroke-width="4" stroke-linecap="round"/>
<path d="M124.979 39.768C124.979 39.768 130.463 42.9898 134.331 44.1025C137.357 44.9727 139.166 45.0021 142.291 45.3856C149.462 46.2656 160.779 46.0418 160.779 46.0418C160.779 46.0418 161.552 46.0409 165.063 46.0418M124.3 40.2442C124.3 40.2442 124.234 46.6038 123.193 50.4924C122.379 53.5338 121.472 55.0987 120.19 57.9742C117.247 64.5725 111.221 74.1549 111.221 74.1549C111.221 74.1549 110.066 75.8514 108.564 78.295" stroke="#282828" stroke-width="4" stroke-linecap="round"/>
<path d="M35.8247 128.125C35.8247 128.125 42.1846 128.154 46.0883 127.172C49.1415 126.403 50.7198 125.519 53.6142 124.28C60.2559 121.437 69.9274 115.555 69.9274 115.555C69.9274 115.555 70.0273 115.499 73.0635 113.735M35.4769 128.878C35.4769 128.878 38.6162 134.409 39.6709 138.294C40.4957 141.333 40.498 143.141 40.8347 146.272C41.6073 153.455 41.214 164.768 41.214 164.768C41.214 164.768 41.0684 166.815 40.9975 169.683" stroke="#282828" stroke-width="4" stroke-linecap="round"/>
<path d="M6.79509 243.212C6.79509 243.212 12.1377 239.761 14.8704 236.805C17.0078 234.494 17.8469 232.891 19.5941 230.272C23.6032 224.262 28.4899 214.051 28.4899 214.051C28.4899 214.051 29.5563 211.598 31.1354 208.462M6.91524 244.032C6.91524 244.032 12.5666 246.95 15.5724 249.627C17.9234 251.722 18.9136 253.235 20.9059 255.673C25.4777 261.267 31.3292 270.957 31.3292 270.957C31.3292 270.957 31.556 271.294 33.0635 273.735" stroke="#282828" stroke-width="4" stroke-linecap="round"/>
<path d="M36.722 355.554C36.722 355.554 39.7262 349.948 40.6863 346.039C41.4372 342.981 41.3956 341.173 41.6562 338.035C42.2543 330.835 41.5867 319.535 41.5867 319.535C41.5867 319.535 41.3322 316.873 41.1954 313.364M37.2245 356.214C37.2245 356.214 43.5818 356.031 47.5082 356.918C50.5792 357.612 52.1785 358.457 55.1021 359.626C61.8107 362.307 71.6221 367.953 71.6221 367.953C71.6221 367.953 76.0629 370.829 78.5635 372.235" stroke="#282828" stroke-width="4" stroke-linecap="round"/>
<path d="M142.373 404.61C142.373 404.61 142.609 398.254 141.755 394.321C141.086 391.244 140.254 389.638 139.11 386.704C136.485 379.974 130.922 370.115 130.922 370.115C130.922 370.115 125.285 360.923 123.176 354.423C121.874 350.414 120.83 348.116 120.77 343.901C120.71 339.723 122.836 333.402 122.836 333.402C122.836 333.402 125.497 327.606 127.802 324.259C129.838 321.304 131.382 319.465 133.564 317.336M143.114 404.982C143.114 404.982 148.745 402.025 152.662 401.097C155.726 400.372 157.534 400.429 160.673 400.194C167.878 399.656 179.172 400.418 179.172 400.418C179.172 400.418 189.897 401.534 196.671 400.63C200.849 400.073 203.373 400.023 207.2 398.258C210.995 396.508 215.778 391.861 215.778 391.861C215.778 391.861 219.858 386.958 221.881 383.435C223.322 380.924 224.247 379.016 225.064 376.857" stroke="#282828" stroke-width="4" stroke-linecap="round"/>
<path d="M171.356 444.537L172.984 443.374L171.356 444.537ZM175.791 451.269L177.582 450.378L177.582 450.378L175.791 451.269ZM178.919 461.091L176.964 461.51C177.106 462.174 177.575 462.72 178.209 462.961C178.844 463.202 179.557 463.105 180.104 462.703L178.919 461.091ZM159.342 430.469L157.829 431.777L157.861 431.814L157.895 431.85L159.342 430.469ZM238.261 431.526C238.845 430.588 238.558 429.355 237.621 428.771C236.683 428.187 235.449 428.474 234.866 429.412L238.261 431.526ZM229.063 439.002L230.217 440.635L230.315 440.566L230.404 440.486L229.063 439.002ZM195.574 452.313L196.208 454.21L196.208 454.21L195.574 452.313ZM188.03 455.158L188.955 456.931L188.955 456.931L188.03 455.158ZM213.56 447.984L214.307 449.839L213.56 447.984ZM147.495 403.715C147.208 402.649 146.111 402.016 145.044 402.303C143.978 402.59 143.345 403.687 143.632 404.754L147.495 403.715ZM169.729 445.699C171.647 448.385 172.69 449.53 174.001 452.161L177.582 450.378C176.084 447.373 174.725 445.813 172.984 443.374L169.729 445.699ZM174.001 452.161C174.809 453.783 175.55 456.084 176.102 458.067C176.373 459.041 176.589 459.907 176.738 460.529C176.812 460.839 176.869 461.088 176.908 461.257C176.927 461.342 176.941 461.407 176.951 461.45C176.955 461.471 176.959 461.487 176.961 461.497C176.962 461.502 176.963 461.506 176.963 461.508C176.964 461.509 176.964 461.51 176.964 461.51C176.964 461.51 176.964 461.511 176.964 461.511C176.964 461.511 176.964 461.51 176.964 461.51C176.964 461.51 176.964 461.51 178.919 461.091C180.875 460.672 180.875 460.672 180.875 460.672C180.875 460.672 180.875 460.671 180.875 460.671C180.875 460.671 180.875 460.67 180.875 460.67C180.874 460.669 180.874 460.667 180.874 460.665C180.873 460.661 180.872 460.656 180.87 460.649C180.867 460.636 180.863 460.616 180.857 460.591C180.846 460.541 180.83 460.469 180.81 460.377C180.768 460.192 180.707 459.927 180.628 459.598C180.471 458.941 180.242 458.027 179.956 456.996C179.392 454.969 178.569 452.359 177.582 450.378L174.001 452.161ZM159.342 430.469C157.895 431.85 157.895 431.85 157.895 431.85C157.895 431.85 157.895 431.85 157.895 431.85C157.895 431.85 157.896 431.85 157.896 431.851C157.897 431.852 157.898 431.853 157.9 431.855C157.903 431.858 157.909 431.864 157.916 431.871C157.93 431.886 157.951 431.909 157.98 431.939C158.037 431.999 158.121 432.088 158.231 432.204C158.45 432.436 158.768 432.776 159.163 433.201C159.954 434.053 161.053 435.25 162.281 436.629C164.751 439.401 167.695 442.851 169.729 445.699L172.984 443.374C170.819 440.343 167.755 436.76 165.268 433.968C164.017 432.564 162.9 431.346 162.094 430.479C161.691 430.045 161.366 429.699 161.141 429.46C161.029 429.341 160.941 429.249 160.882 429.186C160.852 429.154 160.829 429.13 160.813 429.114C160.805 429.106 160.799 429.099 160.795 429.095C160.793 429.093 160.792 429.091 160.791 429.09C160.79 429.089 160.79 429.089 160.789 429.089C160.789 429.089 160.789 429.088 160.789 429.088C160.789 429.088 160.789 429.088 159.342 430.469ZM234.866 429.412C233.727 431.24 231.968 433.253 230.432 434.858C229.674 435.648 228.992 436.318 228.501 436.789C228.255 437.024 228.058 437.209 227.923 437.334C227.856 437.396 227.804 437.443 227.77 437.474C227.753 437.49 227.74 437.501 227.732 437.509C227.728 437.512 227.726 437.515 227.724 437.516C227.723 437.517 227.723 437.518 227.722 437.518C227.722 437.518 227.722 437.518 227.722 437.518C227.722 437.518 227.722 437.518 227.722 437.518C227.723 437.518 227.723 437.518 229.063 439.002C230.404 440.486 230.404 440.486 230.405 440.485C230.405 440.485 230.405 440.485 230.405 440.485C230.405 440.485 230.406 440.484 230.406 440.484C230.407 440.483 230.409 440.482 230.41 440.48C230.413 440.477 230.418 440.473 230.423 440.468C230.434 440.458 230.45 440.444 230.47 440.425C230.511 440.388 230.569 440.335 230.643 440.266C230.792 440.128 231.005 439.929 231.267 439.678C231.791 439.176 232.515 438.465 233.32 437.624C234.909 435.966 236.899 433.713 238.261 431.526L234.866 429.412ZM194.939 450.417C192.097 451.367 190.081 451.832 187.105 453.384L188.955 456.931C191.561 455.571 193.078 455.257 196.208 454.21L194.939 450.417ZM187.105 453.384C185.207 454.374 182.847 455.916 181.008 457.171C180.078 457.806 179.262 458.381 178.679 458.798C178.387 459.007 178.152 459.176 177.99 459.294C177.909 459.352 177.846 459.398 177.803 459.43C177.781 459.446 177.765 459.458 177.753 459.466C177.748 459.47 177.743 459.473 177.74 459.476C177.739 459.477 177.738 459.478 177.737 459.478C177.736 459.479 177.736 459.479 177.736 459.479C177.736 459.479 177.735 459.479 177.735 459.479C177.735 459.479 177.735 459.48 178.919 461.091C180.104 462.703 180.104 462.703 180.104 462.703C180.104 462.703 180.104 462.703 180.104 462.703C180.104 462.703 180.104 462.703 180.104 462.702C180.105 462.702 180.105 462.702 180.107 462.701C180.109 462.699 180.113 462.696 180.117 462.693C180.127 462.686 180.142 462.675 180.162 462.66C180.202 462.631 180.261 462.588 180.339 462.531C180.494 462.419 180.72 462.256 181.003 462.053C181.57 461.649 182.362 461.09 183.264 460.474C185.089 459.228 187.283 457.803 188.955 456.931L187.105 453.384ZM212.813 446.129C209.673 447.394 207.068 447.876 204.3 448.328C201.529 448.781 198.545 449.211 194.939 450.417L196.208 454.21C199.454 453.124 202.112 452.739 204.946 452.276C207.783 451.812 210.745 451.275 214.307 449.839L212.813 446.129ZM229.063 439.002C227.909 437.368 227.909 437.368 227.91 437.368C227.91 437.368 227.91 437.368 227.909 437.368C227.909 437.368 227.909 437.368 227.909 437.369C227.908 437.369 227.907 437.37 227.905 437.372C227.901 437.374 227.895 437.378 227.887 437.384C227.871 437.395 227.847 437.412 227.814 437.435C227.75 437.48 227.652 437.548 227.526 437.636C227.273 437.811 226.902 438.065 226.436 438.379C225.504 439.007 224.193 439.872 222.684 440.817C219.637 442.725 215.885 444.891 212.813 446.129L214.307 449.839C217.725 448.463 221.725 446.138 224.807 444.208C226.362 443.234 227.711 442.343 228.671 441.696C229.152 441.372 229.536 441.109 229.801 440.925C229.934 440.834 230.037 440.762 230.107 440.713C230.142 440.688 230.169 440.669 230.188 440.656C230.197 440.65 230.204 440.645 230.209 440.641C230.212 440.639 230.214 440.638 230.215 440.637C230.216 440.636 230.216 440.636 230.217 440.636C230.217 440.636 230.217 440.635 230.217 440.635C230.217 440.635 230.217 440.635 229.063 439.002ZM143.632 404.754C145.156 410.423 146.669 414.85 148.843 419.045C151.019 423.245 153.815 427.133 157.829 431.777L160.855 429.161C156.964 424.66 154.378 421.034 152.394 417.205C150.408 413.372 148.984 409.254 147.495 403.715L143.632 404.754Z" fill="#282828"/>
<path d="M288.632 453.255L289.317 451.376L288.632 453.255ZM296.097 456.3L297.069 454.552L297.069 454.552L296.097 456.3ZM304.231 462.631L302.855 464.083C303.348 464.55 304.043 464.735 304.703 464.575C305.362 464.415 305.895 463.931 306.119 463.291L304.231 462.631ZM270.767 448.447L270.259 450.382L270.307 450.394L270.355 450.404L270.767 448.447ZM336.453 404.689C336.404 403.586 335.47 402.73 334.366 402.779C333.263 402.828 332.408 403.762 332.457 404.866L336.453 404.689ZM333.095 416.056L334.97 416.75L335.012 416.638L335.04 416.522L333.095 416.056ZM313.002 445.974L314.598 447.179L314.598 447.179L313.002 445.974ZM308.389 452.586L310.155 453.525L310.155 453.525L308.389 452.586ZM325.388 432.232L327.054 433.339L325.388 432.232ZM245.867 433.082C245.027 432.365 243.765 432.464 243.047 433.304C242.33 434.143 242.429 435.406 243.268 436.123L245.867 433.082ZM287.947 455.134C291.048 456.265 292.556 456.619 295.125 458.048L297.069 454.552C294.135 452.92 292.132 452.402 289.317 451.376L287.947 455.134ZM295.125 458.048C296.708 458.928 298.621 460.407 300.197 461.731C300.971 462.381 301.64 462.972 302.114 463.401C302.351 463.615 302.538 463.788 302.666 463.906C302.729 463.965 302.778 464.01 302.81 464.04C302.826 464.055 302.838 464.066 302.845 464.074C302.849 464.077 302.852 464.08 302.854 464.081C302.854 464.082 302.855 464.083 302.855 464.083C302.855 464.083 302.855 464.083 302.855 464.083C302.855 464.083 302.855 464.083 302.855 464.083C302.855 464.083 302.855 464.083 304.231 462.631C305.607 461.18 305.607 461.18 305.606 461.179C305.606 461.179 305.606 461.179 305.606 461.179C305.606 461.179 305.605 461.178 305.605 461.178C305.604 461.177 305.603 461.176 305.602 461.175C305.599 461.172 305.595 461.168 305.59 461.164C305.58 461.154 305.565 461.14 305.547 461.123C305.509 461.088 305.455 461.038 305.386 460.973C305.247 460.844 305.047 460.66 304.796 460.433C304.294 459.98 303.589 459.356 302.769 458.667C301.158 457.315 299.004 455.628 297.069 454.552L295.125 458.048ZM270.767 448.447C270.355 450.404 270.355 450.404 270.355 450.404C270.355 450.404 270.355 450.404 270.355 450.404C270.355 450.404 270.356 450.405 270.356 450.405C270.357 450.405 270.359 450.405 270.362 450.406C270.366 450.407 270.374 450.408 270.384 450.411C270.404 450.415 270.435 450.421 270.475 450.43C270.556 450.447 270.676 450.473 270.832 450.507C271.144 450.575 271.598 450.674 272.165 450.802C273.299 451.057 274.882 451.423 276.675 451.865C280.28 452.755 284.659 453.936 287.947 455.134L289.317 451.376C285.816 450.1 281.264 448.877 277.633 447.982C275.808 447.531 274.198 447.159 273.043 446.899C272.465 446.769 272.001 446.668 271.681 446.598C271.521 446.563 271.396 446.536 271.311 446.518C271.269 446.509 271.236 446.502 271.214 446.498C271.203 446.495 271.195 446.494 271.189 446.492C271.186 446.492 271.184 446.491 271.182 446.491C271.181 446.491 271.181 446.491 271.18 446.49C271.18 446.49 271.18 446.49 271.18 446.49C271.18 446.49 271.18 446.49 270.767 448.447ZM332.457 404.866C332.552 407.017 332.239 409.672 331.879 411.864C331.702 412.945 331.518 413.883 331.379 414.549C331.309 414.882 331.251 415.146 331.211 415.325C331.19 415.415 331.175 415.483 331.164 415.528C331.159 415.55 331.155 415.567 331.153 415.577C331.151 415.583 331.15 415.586 331.15 415.588C331.15 415.59 331.15 415.59 331.149 415.591C331.149 415.591 331.149 415.591 331.149 415.591C331.149 415.591 331.149 415.591 331.149 415.591C331.15 415.59 331.15 415.59 333.095 416.056C335.04 416.522 335.04 416.521 335.04 416.521C335.04 416.521 335.04 416.521 335.04 416.521C335.04 416.52 335.04 416.52 335.04 416.519C335.041 416.518 335.041 416.516 335.041 416.514C335.042 416.51 335.044 416.504 335.046 416.497C335.049 416.482 335.054 416.461 335.06 416.435C335.073 416.381 335.09 416.304 335.113 416.205C335.157 416.007 335.22 415.723 335.294 415.367C335.443 414.657 335.638 413.662 335.827 412.513C336.199 410.247 336.567 407.263 336.453 404.689L332.457 404.866ZM311.406 444.768C309.6 447.159 308.2 448.682 306.623 451.646L310.155 453.525C311.535 450.93 312.609 449.813 314.598 447.179L311.406 444.768ZM306.623 451.646C305.618 453.535 304.543 456.142 303.737 458.217C303.329 459.266 302.981 460.202 302.736 460.876C302.613 461.214 302.515 461.486 302.448 461.674C302.414 461.769 302.388 461.842 302.371 461.892C302.362 461.918 302.355 461.937 302.35 461.95C302.348 461.957 302.346 461.962 302.345 461.966C302.344 461.968 302.344 461.969 302.343 461.97C302.343 461.97 302.343 461.971 302.343 461.971C302.343 461.971 302.343 461.971 302.343 461.972C302.343 461.972 302.343 461.972 304.231 462.631C306.119 463.291 306.119 463.291 306.119 463.291C306.119 463.291 306.119 463.291 306.119 463.291C306.119 463.291 306.119 463.29 306.119 463.29C306.119 463.29 306.12 463.289 306.12 463.287C306.121 463.285 306.123 463.28 306.125 463.275C306.129 463.263 306.135 463.246 306.143 463.222C306.159 463.176 306.184 463.106 306.216 463.016C306.28 462.836 306.375 462.573 306.494 462.246C306.732 461.592 307.07 460.683 307.465 459.665C308.265 457.606 309.269 455.19 310.155 453.525L306.623 451.646ZM323.723 431.125C321.849 433.943 319.972 435.813 317.946 437.752C315.917 439.692 313.698 441.735 311.406 444.768L314.598 447.179C316.661 444.448 318.635 442.627 320.711 440.642C322.788 438.655 324.927 436.537 327.054 433.339L323.723 431.125ZM333.095 416.056C331.219 415.361 331.219 415.361 331.219 415.361C331.219 415.361 331.219 415.361 331.219 415.361C331.219 415.361 331.219 415.362 331.219 415.362C331.218 415.363 331.218 415.365 331.217 415.367C331.215 415.371 331.213 415.378 331.21 415.387C331.203 415.405 331.192 415.433 331.178 415.47C331.151 415.544 331.109 415.655 331.054 415.799C330.944 416.086 330.782 416.506 330.575 417.028C330.162 418.074 329.57 419.528 328.86 421.161C327.426 424.457 325.557 428.366 323.723 431.125L327.054 433.339C329.093 430.271 331.077 426.091 332.528 422.757C333.26 421.074 333.869 419.577 334.295 418.5C334.508 417.961 334.676 417.526 334.791 417.225C334.848 417.075 334.893 416.957 334.923 416.877C334.938 416.837 334.949 416.806 334.957 416.785C334.961 416.774 334.964 416.766 334.967 416.76C334.968 416.757 334.968 416.755 334.969 416.753C334.969 416.753 334.97 416.752 334.97 416.751C334.97 416.751 334.97 416.751 334.97 416.751C334.97 416.751 334.97 416.75 333.095 416.056ZM243.268 436.123C247.731 439.937 251.482 442.732 255.648 444.964C259.818 447.197 264.323 448.822 270.259 450.382L271.276 446.513C265.521 445.001 261.338 443.474 257.536 441.437C253.731 439.399 250.227 436.808 245.867 433.082L243.268 436.123Z" fill="#282828"/>
<path d="M381.222 402.627L380.974 400.642L381.222 402.627ZM389.254 401.927L389.321 399.928L389.321 399.928L389.254 401.927ZM399.382 403.845L398.821 405.765C399.472 405.955 400.175 405.802 400.689 405.359C401.203 404.915 401.456 404.242 401.363 403.57L399.382 403.845ZM363.134 406.507L363.565 408.46L363.613 408.449L363.661 408.436L363.134 406.507ZM402.301 338.744C401.754 337.784 400.532 337.45 399.573 337.997C398.613 338.545 398.279 339.766 398.826 340.726L402.301 338.744ZM403.793 349.229L405.779 348.991L405.773 348.947L405.766 348.904L403.793 349.229ZM399.579 385.02L397.609 384.677L399.579 385.02ZM398.494 393.009L396.494 392.98L396.494 392.98L398.494 393.009ZM404.323 367.139L406.311 367.364L404.323 367.139ZM341.89 404.877C340.8 404.697 339.771 405.434 339.59 406.524C339.41 407.613 340.147 408.643 341.237 408.823L341.89 404.877ZM381.471 404.611C384.746 404.201 386.25 403.828 389.188 403.925L389.321 399.928C385.965 399.816 383.947 400.27 380.974 400.642L381.471 404.611ZM389.188 403.925C390.998 403.986 393.375 404.428 395.382 404.886C396.368 405.111 397.232 405.332 397.85 405.497C398.158 405.579 398.404 405.647 398.571 405.694C398.655 405.717 398.719 405.735 398.761 405.748C398.782 405.754 398.798 405.758 398.808 405.761C398.813 405.763 398.816 405.764 398.819 405.764C398.82 405.764 398.82 405.765 398.821 405.765C398.821 405.765 398.821 405.765 398.821 405.765C398.821 405.765 398.821 405.765 398.821 405.765C398.821 405.765 398.821 405.765 399.382 403.845C399.943 401.925 399.943 401.925 399.943 401.925C399.943 401.925 399.942 401.925 399.942 401.925C399.942 401.925 399.941 401.925 399.941 401.925C399.94 401.924 399.938 401.924 399.936 401.923C399.932 401.922 399.927 401.921 399.921 401.919C399.907 401.915 399.888 401.91 399.864 401.903C399.815 401.888 399.743 401.868 399.652 401.843C399.47 401.791 399.207 401.719 398.881 401.632C398.228 401.458 397.315 401.224 396.272 400.986C394.221 400.518 391.533 400.001 389.321 399.928L389.188 403.925ZM363.134 406.507C363.661 408.436 363.661 408.436 363.661 408.436C363.661 408.436 363.661 408.436 363.661 408.436C363.661 408.436 363.661 408.436 363.662 408.436C363.663 408.436 363.665 408.435 363.667 408.434C363.672 408.433 363.68 408.431 363.689 408.428C363.709 408.423 363.74 408.415 363.779 408.404C363.859 408.383 363.978 408.351 364.132 408.31C364.44 408.227 364.89 408.109 365.453 407.963C366.578 407.672 368.154 407.275 369.95 406.85C373.564 405.995 377.999 405.046 381.471 404.611L380.974 400.642C377.277 401.105 372.668 402.097 369.03 402.957C367.2 403.39 365.597 403.794 364.452 404.091C363.878 404.239 363.419 404.36 363.102 404.444C362.944 404.487 362.821 404.52 362.737 404.542C362.695 404.554 362.663 404.562 362.641 404.568C362.63 404.571 362.622 404.573 362.616 404.575C362.614 404.576 362.611 404.576 362.61 404.577C362.609 404.577 362.608 404.577 362.608 404.577C362.608 404.577 362.607 404.577 362.607 404.577C362.607 404.577 362.607 404.578 363.134 406.507ZM398.826 340.726C399.881 342.574 400.635 344.769 401.129 346.556C401.374 347.438 401.548 348.199 401.661 348.735C401.717 349.003 401.758 349.213 401.784 349.354C401.797 349.425 401.806 349.478 401.812 349.512C401.815 349.528 401.817 349.541 401.818 349.548C401.819 349.551 401.819 349.553 401.82 349.554C401.82 349.555 401.82 349.555 401.82 349.555C401.82 349.555 401.82 349.555 401.82 349.555C401.82 349.555 401.82 349.554 401.82 349.554C401.819 349.554 401.819 349.554 403.793 349.229C405.766 348.904 405.766 348.904 405.766 348.904C405.766 348.904 405.766 348.903 405.766 348.903C405.766 348.903 405.766 348.902 405.766 348.901C405.766 348.9 405.765 348.898 405.765 348.896C405.764 348.892 405.763 348.886 405.762 348.879C405.76 348.866 405.757 348.847 405.753 348.824C405.744 348.777 405.732 348.71 405.717 348.625C405.685 348.455 405.638 348.213 405.575 347.912C405.449 347.31 405.255 346.467 404.985 345.489C404.45 343.557 403.59 341.004 402.301 338.744L398.826 340.726ZM397.609 384.677C397.094 387.629 396.544 389.623 396.494 392.98L400.494 393.039C400.537 390.099 400.982 388.616 401.549 385.364L397.609 384.677ZM396.494 392.98C396.463 395.12 396.696 397.929 396.926 400.143C397.043 401.263 397.161 402.255 397.25 402.967C397.295 403.323 397.332 403.609 397.359 403.808C397.372 403.907 397.382 403.984 397.39 404.037C397.393 404.064 397.396 404.084 397.398 404.098C397.399 404.105 397.4 404.111 397.4 404.114C397.4 404.116 397.401 404.118 397.401 404.119C397.401 404.119 397.401 404.12 397.401 404.12C397.401 404.12 397.401 404.12 397.401 404.12C397.401 404.121 397.401 404.121 399.382 403.845C401.363 403.57 401.363 403.57 401.363 403.57C401.363 403.57 401.363 403.57 401.363 403.57C401.363 403.57 401.363 403.569 401.363 403.569C401.363 403.568 401.362 403.567 401.362 403.566C401.362 403.563 401.361 403.559 401.36 403.553C401.359 403.541 401.356 403.522 401.353 403.498C401.346 403.449 401.336 403.376 401.324 403.281C401.299 403.092 401.263 402.815 401.219 402.469C401.133 401.778 401.018 400.816 400.905 399.73C400.676 397.532 400.466 394.924 400.494 393.039L396.494 392.98ZM402.336 366.914C401.956 370.277 401.14 372.799 400.223 375.448C399.304 378.101 398.262 380.931 397.609 384.677L401.549 385.364C402.137 381.992 403.062 379.471 404.002 376.758C404.943 374.041 405.879 371.18 406.311 367.364L402.336 366.914ZM403.793 349.229C401.807 349.468 401.807 349.468 401.807 349.467C401.807 349.467 401.807 349.467 401.807 349.468C401.807 349.468 401.807 349.468 401.807 349.468C401.807 349.469 401.808 349.471 401.808 349.473C401.808 349.478 401.809 349.485 401.81 349.495C401.813 349.514 401.816 349.544 401.821 349.583C401.83 349.662 401.843 349.779 401.86 349.932C401.894 350.238 401.941 350.685 401.996 351.244C402.105 352.363 402.243 353.927 402.357 355.704C402.586 359.292 402.708 363.622 402.336 366.914L406.311 367.364C406.724 363.703 406.581 359.078 406.349 355.449C406.232 353.618 406.09 352.008 405.977 350.855C405.92 350.278 405.871 349.815 405.836 349.495C405.818 349.335 405.804 349.21 405.794 349.125C405.789 349.082 405.786 349.049 405.783 349.027C405.782 349.016 405.781 349.007 405.78 349.001C405.78 348.998 405.779 348.995 405.779 348.994C405.779 348.993 405.779 348.992 405.779 348.992C405.779 348.991 405.779 348.991 405.779 348.991C405.779 348.991 405.779 348.991 403.793 349.229ZM341.237 408.823C348.413 410.01 354.526 410.455 363.565 408.46L362.703 404.554C354.306 406.407 348.733 406.009 341.89 404.877L341.237 408.823Z" fill="#282828"/>
<path d="M443.545 305.398L442.269 303.858L443.545 305.398ZM449.942 300.491L448.924 298.769L448.924 298.769L449.942 300.491ZM459.514 296.665L460.072 298.586C460.724 298.396 461.235 297.889 461.429 297.239C461.624 296.589 461.476 295.885 461.036 295.368L459.514 296.665ZM430.377 318.393L431.791 319.808L431.826 319.773L431.859 319.737L430.377 318.393ZM430.342 242.697C429.493 241.991 428.232 242.107 427.526 242.956C426.819 243.805 426.935 245.066 427.785 245.772L430.342 242.697ZM433.877 248.238L435.424 246.97L435.303 246.822L435.156 246.701L433.877 248.238ZM449.562 280.685L451.408 279.916L451.408 279.916L449.562 280.685ZM452.941 288.005L451.239 289.055L451.239 289.055L452.941 288.005ZM443.951 263.056L445.748 262.177L443.951 263.056ZM406.907 330.846C405.863 331.208 405.312 332.348 405.674 333.391C406.037 334.435 407.177 334.987 408.22 334.624L406.907 330.846ZM444.822 306.938C447.363 304.832 448.43 303.709 450.96 302.212L448.924 298.769C446.034 300.479 444.576 301.946 442.269 303.858L444.822 306.938ZM450.96 302.212C452.519 301.29 454.761 300.385 456.7 299.693C457.652 299.353 458.5 299.074 459.109 298.881C459.414 298.785 459.657 298.71 459.824 298.66C459.907 298.635 459.97 298.616 460.013 298.603C460.034 298.597 460.049 298.592 460.059 298.589C460.064 298.588 460.068 298.587 460.07 298.586C460.071 298.586 460.072 298.586 460.072 298.586C460.072 298.585 460.072 298.585 460.072 298.585C460.072 298.585 460.072 298.585 460.072 298.585C460.072 298.586 460.072 298.586 459.514 296.665C458.955 294.745 458.955 294.745 458.955 294.745C458.955 294.745 458.954 294.745 458.954 294.745C458.954 294.745 458.953 294.745 458.953 294.745C458.952 294.746 458.95 294.746 458.948 294.747C458.944 294.748 458.939 294.749 458.933 294.751C458.919 294.755 458.9 294.761 458.876 294.768C458.827 294.783 458.756 294.804 458.665 294.831C458.484 294.886 458.224 294.966 457.901 295.068C457.257 295.272 456.362 295.566 455.354 295.926C453.373 296.634 450.829 297.642 448.924 298.769L450.96 302.212ZM430.377 318.393C431.859 319.737 431.859 319.737 431.859 319.737C431.859 319.737 431.859 319.736 431.859 319.736C431.859 319.736 431.859 319.736 431.86 319.736C431.86 319.735 431.862 319.733 431.863 319.731C431.867 319.728 431.872 319.722 431.879 319.714C431.893 319.699 431.914 319.676 431.942 319.646C431.997 319.585 432.08 319.494 432.188 319.376C432.404 319.141 432.719 318.8 433.116 318.375C433.908 317.524 435.023 316.342 436.31 315.018C438.897 312.355 442.128 309.171 444.822 306.938L442.269 303.858C439.401 306.236 436.047 309.549 433.441 312.231C432.131 313.579 430.997 314.781 430.19 315.647C429.786 316.08 429.464 316.429 429.242 316.671C429.131 316.791 429.045 316.885 428.987 316.949C428.958 316.981 428.935 317.006 428.92 317.023C428.913 317.031 428.907 317.037 428.903 317.042C428.901 317.044 428.899 317.046 428.898 317.047C428.898 317.047 428.897 317.048 428.897 317.048C428.897 317.048 428.896 317.049 428.896 317.049C428.896 317.049 428.896 317.049 430.377 318.393ZM427.785 245.772L432.599 249.776L435.156 246.701L430.342 242.697L427.785 245.772ZM447.715 281.454C448.868 284.22 449.476 286.197 451.239 289.055L454.643 286.955C453.1 284.453 452.677 282.963 451.408 279.916L447.715 281.454ZM451.239 289.055C452.362 290.876 454.069 293.12 455.453 294.863C456.154 295.745 456.786 296.518 457.244 297.07C457.473 297.346 457.659 297.568 457.788 297.721C457.852 297.798 457.902 297.857 457.937 297.898C457.954 297.918 457.967 297.934 457.976 297.945C457.981 297.95 457.985 297.954 457.987 297.957C457.988 297.959 457.989 297.96 457.99 297.961C457.99 297.961 457.991 297.961 457.991 297.962C457.991 297.962 457.991 297.962 457.991 297.962C457.991 297.962 457.991 297.962 459.514 296.665C461.036 295.368 461.036 295.368 461.036 295.368C461.036 295.368 461.036 295.368 461.036 295.368C461.036 295.368 461.036 295.368 461.036 295.368C461.035 295.367 461.035 295.366 461.034 295.365C461.032 295.363 461.029 295.36 461.025 295.355C461.017 295.346 461.005 295.332 460.989 295.313C460.957 295.275 460.91 295.219 460.848 295.146C460.725 294.999 460.546 294.785 460.324 294.517C459.879 293.981 459.265 293.231 458.586 292.376C457.212 290.646 455.633 288.56 454.643 286.955L451.239 289.055ZM442.155 263.935C443.642 266.975 444.309 269.539 444.959 272.267C445.61 274.998 446.253 277.945 447.715 281.454L451.408 279.916C450.091 276.756 449.516 274.133 448.85 271.34C448.184 268.543 447.435 265.627 445.748 262.177L442.155 263.935ZM433.877 248.238C432.331 249.507 432.331 249.507 432.331 249.507C432.331 249.507 432.331 249.507 432.331 249.507C432.331 249.507 432.331 249.507 432.332 249.507C432.332 249.508 432.333 249.509 432.335 249.511C432.338 249.515 432.342 249.52 432.348 249.528C432.361 249.543 432.38 249.566 432.405 249.597C432.454 249.658 432.529 249.75 432.625 249.87C432.818 250.11 433.099 250.462 433.445 250.904C434.139 251.788 435.096 253.033 436.147 254.471C438.269 257.372 440.699 260.959 442.155 263.935L445.748 262.177C444.129 258.868 441.522 255.045 439.376 252.11C438.293 250.628 437.308 249.347 436.593 248.436C436.235 247.98 435.945 247.615 435.743 247.364C435.642 247.239 435.563 247.141 435.509 247.075C435.482 247.041 435.461 247.016 435.447 246.998C435.44 246.989 435.434 246.983 435.43 246.978C435.428 246.975 435.427 246.974 435.426 246.972C435.425 246.972 435.425 246.971 435.424 246.971C435.424 246.97 435.424 246.97 435.424 246.97C435.424 246.97 435.424 246.97 433.877 248.238ZM408.22 334.624C413.725 332.71 417.469 331.201 420.934 329.033C424.399 326.867 427.493 324.1 431.791 319.808L428.964 316.978C424.709 321.227 421.877 323.726 418.813 325.642C415.75 327.558 412.364 328.948 406.907 330.846L408.22 334.624Z" fill="#282828"/>
<path d="M449.202 199.337L447.39 198.491L449.202 199.337ZM452.887 192.166L451.23 191.045L451.23 191.045L452.887 192.166ZM459.904 184.616L461.23 186.113C461.738 185.664 461.984 184.987 461.882 184.316C461.78 183.645 461.345 183.072 460.726 182.793L459.904 184.616ZM442.852 216.713L444.735 217.388L444.752 217.342L444.766 217.295L442.852 216.713ZM404.998 147.457C403.894 147.409 402.961 148.265 402.913 149.369C402.865 150.472 403.721 151.406 404.824 151.453L404.998 147.457ZM416.028 151.795L416.883 149.988L416.775 149.936L416.662 149.898L416.028 151.795ZM444.077 174.424L442.736 175.908L444.077 174.424ZM450.26 179.597L449.17 181.273L449.17 181.273L450.26 179.597ZM431.469 160.885L432.717 159.323L431.469 160.885ZM430.027 234.954C429.32 235.803 429.435 237.064 430.283 237.771C431.132 238.478 432.393 238.364 433.1 237.515L430.027 234.954ZM451.014 200.183C452.411 197.193 452.896 195.722 454.543 193.287L451.23 191.045C449.349 193.826 448.658 195.776 447.39 198.491L451.014 200.183ZM454.543 193.287C455.558 191.787 457.199 190.011 458.655 188.556C459.37 187.841 460.018 187.227 460.486 186.792C460.72 186.575 460.908 186.403 461.037 186.287C461.102 186.228 461.151 186.184 461.184 186.155C461.2 186.14 461.213 186.129 461.22 186.122C461.224 186.119 461.227 186.116 461.229 186.115C461.23 186.114 461.23 186.114 461.23 186.113C461.23 186.113 461.231 186.113 461.231 186.113C461.231 186.113 461.23 186.113 461.23 186.113C461.23 186.113 461.23 186.113 459.904 184.616C458.579 183.119 458.578 183.119 458.578 183.119C458.578 183.119 458.578 183.119 458.578 183.119C458.578 183.12 458.577 183.12 458.577 183.12C458.576 183.121 458.575 183.122 458.573 183.123C458.57 183.126 458.566 183.13 458.561 183.134C458.551 183.143 458.536 183.157 458.517 183.174C458.479 183.208 458.424 183.257 458.354 183.321C458.213 183.448 458.012 183.631 457.764 183.862C457.269 184.321 456.585 184.97 455.828 185.726C454.34 187.213 452.471 189.212 451.23 191.045L454.543 193.287ZM442.852 216.713C444.766 217.295 444.766 217.295 444.766 217.295C444.766 217.295 444.766 217.295 444.766 217.295C444.766 217.294 444.766 217.294 444.766 217.294C444.767 217.292 444.767 217.291 444.768 217.288C444.769 217.284 444.772 217.276 444.775 217.266C444.781 217.247 444.79 217.217 444.802 217.177C444.826 217.098 444.862 216.981 444.91 216.828C445.004 216.524 445.143 216.08 445.32 215.526C445.673 214.419 446.176 212.874 446.773 211.127C447.974 207.613 449.533 203.354 451.014 200.183L447.39 198.491C445.813 201.866 444.197 206.295 442.988 209.833C442.38 211.612 441.869 213.183 441.509 214.311C441.329 214.875 441.187 215.328 441.09 215.642C441.041 215.798 441.004 215.92 440.978 216.003C440.965 216.044 440.956 216.076 440.949 216.098C440.946 216.108 440.943 216.117 440.942 216.122C440.941 216.125 440.94 216.127 440.94 216.129C440.939 216.13 440.939 216.13 440.939 216.131C440.939 216.131 440.939 216.131 440.939 216.131C440.939 216.131 440.939 216.132 442.852 216.713ZM404.824 151.453C406.976 151.547 409.594 152.09 411.746 152.64C412.807 152.911 413.725 153.176 414.377 153.373C414.702 153.471 414.96 153.552 415.135 153.608C415.223 153.636 415.289 153.658 415.333 153.672C415.355 153.679 415.371 153.685 415.381 153.688C415.387 153.69 415.39 153.691 415.392 153.692C415.393 153.692 415.394 153.692 415.394 153.692C415.394 153.692 415.394 153.692 415.394 153.692C415.394 153.692 415.394 153.692 415.394 153.692C415.394 153.692 415.394 153.692 416.028 151.795C416.662 149.898 416.661 149.898 416.661 149.898C416.661 149.898 416.661 149.898 416.66 149.898C416.66 149.898 416.66 149.898 416.659 149.897C416.658 149.897 416.656 149.896 416.654 149.896C416.65 149.894 416.644 149.893 416.637 149.89C416.623 149.886 416.603 149.879 416.577 149.87C416.524 149.853 416.449 149.829 416.353 149.798C416.16 149.736 415.881 149.649 415.534 149.544C414.84 149.334 413.865 149.053 412.737 148.764C410.512 148.196 407.572 147.569 404.998 147.457L404.824 151.453ZM442.736 175.908C444.96 177.916 446.356 179.444 449.17 181.273L451.35 177.92C448.886 176.318 447.867 175.151 445.417 172.939L442.736 175.908ZM449.17 181.273C450.965 182.44 453.467 183.739 455.464 184.723C456.474 185.221 457.376 185.649 458.026 185.952C458.351 186.104 458.613 186.225 458.795 186.309C458.887 186.35 458.957 186.383 459.006 186.405C459.03 186.416 459.049 186.424 459.062 186.43C459.068 186.433 459.073 186.435 459.077 186.437C459.078 186.438 459.08 186.438 459.081 186.439C459.081 186.439 459.082 186.439 459.082 186.439C459.082 186.439 459.082 186.439 459.082 186.439C459.082 186.439 459.083 186.439 459.904 184.616C460.726 182.793 460.726 182.793 460.726 182.793C460.726 182.793 460.726 182.793 460.726 182.793C460.726 182.793 460.726 182.793 460.726 182.793C460.725 182.792 460.724 182.792 460.723 182.791C460.72 182.79 460.716 182.788 460.711 182.786C460.7 182.781 460.683 182.773 460.66 182.763C460.615 182.742 460.548 182.712 460.461 182.672C460.287 182.592 460.034 182.476 459.719 182.328C459.088 182.034 458.212 181.618 457.232 181.135C455.251 180.158 452.931 178.947 451.35 177.92L449.17 181.273ZM430.22 162.447C432.864 164.56 434.564 166.593 436.318 168.781C438.074 170.972 439.914 173.36 442.736 175.908L445.417 172.939C442.876 170.645 441.235 168.52 439.439 166.279C437.64 164.036 435.718 161.72 432.717 159.323L430.22 162.447ZM416.028 151.795C415.172 153.603 415.172 153.603 415.172 153.603C415.172 153.603 415.172 153.603 415.172 153.603C415.172 153.603 415.172 153.603 415.173 153.603C415.174 153.604 415.175 153.604 415.177 153.605C415.181 153.607 415.188 153.61 415.197 153.615C415.214 153.623 415.241 153.636 415.277 153.653C415.348 153.687 415.455 153.739 415.593 153.806C415.87 153.94 416.274 154.138 416.776 154.39C417.782 154.893 419.179 155.609 420.743 156.459C423.902 158.176 427.632 160.379 430.22 162.447L432.717 159.323C429.839 157.022 425.849 154.681 422.653 152.945C421.041 152.068 419.603 151.331 418.567 150.813C418.049 150.553 417.631 150.348 417.341 150.208C417.196 150.137 417.083 150.083 417.005 150.046C416.967 150.027 416.937 150.013 416.916 150.003C416.906 149.998 416.898 149.995 416.893 149.992C416.89 149.991 416.888 149.99 416.886 149.989C416.886 149.989 416.885 149.988 416.884 149.988C416.884 149.988 416.884 149.988 416.884 149.988C416.884 149.988 416.883 149.988 416.028 151.795ZM433.1 237.515C436.774 233.106 438.732 230.895 440.213 228.381C441.706 225.847 442.721 223.004 444.735 217.388L440.97 216.038C438.903 221.8 438.023 224.218 436.767 226.35C435.499 228.502 433.853 230.364 430.027 234.954L433.1 237.515Z" fill="#282828"/>
<path d="M398.408 96.7537L396.429 97.0484L398.408 96.7537ZM397.521 88.7403L395.521 88.7202L395.521 88.7202L397.521 88.7403ZM399.204 78.5708L401.136 79.0873C401.311 78.4318 401.142 77.7321 400.687 77.2289C400.232 76.7258 399.552 76.4878 398.882 76.5968L399.204 78.5708ZM402.707 114.747L404.649 114.271L404.638 114.223L404.623 114.176L402.707 114.747ZM336.726 75.9184C335.723 76.3809 335.285 77.5689 335.747 78.572C336.21 79.5751 337.398 80.0134 338.401 79.5509L336.726 75.9184ZM344.5 75.4295L344.5 77.4295L344.643 77.4295L344.785 77.4092L344.5 75.4295ZM380.38 78.811L380.678 76.8333L380.678 76.8333L380.38 78.811ZM388.392 79.7101L388.375 77.7102L388.375 77.7102L388.392 79.7101ZM362.393 74.4834L362.571 72.4914L362.393 74.4834ZM400.751 143.318C400.521 144.399 401.21 145.461 402.291 145.691C403.371 145.921 404.433 145.231 404.663 144.151L400.751 143.318ZM400.386 96.459C399.899 93.1943 399.491 91.7 399.521 88.7604L395.521 88.7202C395.487 92.0774 395.988 94.0848 396.429 97.0484L400.386 96.459ZM399.521 88.7604C399.539 86.949 399.926 84.5626 400.337 82.5456C400.539 81.5549 400.74 80.6853 400.891 80.0642C400.966 79.754 401.028 79.5067 401.071 79.3384C401.092 79.2542 401.109 79.1899 401.12 79.1474C401.126 79.1261 401.13 79.1103 401.133 79.1002C401.134 79.0952 401.135 79.0915 401.136 79.0894C401.136 79.0883 401.136 79.0876 401.136 79.0872C401.136 79.0871 401.136 79.087 401.136 79.087C401.136 79.087 401.136 79.0871 401.136 79.0871C401.136 79.0872 401.136 79.0873 399.204 78.5708C397.272 78.0544 397.272 78.0546 397.272 78.0547C397.272 78.0548 397.272 78.0551 397.271 78.0553C397.271 78.0556 397.271 78.0561 397.271 78.0567C397.271 78.0578 397.27 78.0594 397.27 78.0612C397.269 78.065 397.267 78.0703 397.266 78.077C397.262 78.0904 397.257 78.1096 397.251 78.1343C397.238 78.1837 397.219 78.2553 397.196 78.3471C397.149 78.5305 397.082 78.7947 397.003 79.1234C396.844 79.7801 396.632 80.6981 396.418 81.7467C395.998 83.8081 395.543 86.5064 395.521 88.7202L399.521 88.7604ZM402.707 114.747C404.623 114.176 404.623 114.176 404.623 114.176C404.623 114.176 404.623 114.176 404.623 114.176C404.623 114.175 404.623 114.175 404.623 114.174C404.623 114.173 404.622 114.172 404.621 114.169C404.62 114.164 404.618 114.157 404.615 114.147C404.609 114.127 404.6 114.097 404.589 114.058C404.565 113.979 404.53 113.861 404.486 113.707C404.397 113.401 404.267 112.954 404.109 112.395C403.792 111.277 403.358 109.711 402.892 107.925C401.953 104.332 400.901 99.9201 400.386 96.459L396.429 97.0484C396.978 100.733 398.076 105.318 399.021 108.936C399.496 110.754 399.938 112.347 400.261 113.486C400.422 114.056 400.554 114.512 400.646 114.827C400.692 114.984 400.727 115.106 400.752 115.189C400.764 115.231 400.774 115.263 400.78 115.285C400.783 115.295 400.786 115.304 400.787 115.309C400.788 115.312 400.789 115.314 400.789 115.316C400.79 115.317 400.79 115.317 400.79 115.318C400.79 115.318 400.79 115.318 400.79 115.318C400.79 115.319 400.79 115.319 402.707 114.747ZM338.401 79.5509C340.814 78.4385 342.435 77.9065 343.41 77.6534C343.896 77.5271 344.218 77.471 344.394 77.4466C344.482 77.4344 344.533 77.4301 344.55 77.4289C344.559 77.4283 344.559 77.4284 344.55 77.4287C344.546 77.4289 344.54 77.4291 344.531 77.4292C344.527 77.4293 344.522 77.4294 344.517 77.4294C344.515 77.4295 344.512 77.4295 344.509 77.4295C344.508 77.4295 344.506 77.4295 344.505 77.4295C344.504 77.4295 344.503 77.4295 344.502 77.4295C344.501 77.4295 344.5 77.4295 344.5 75.4295C344.5 73.4295 344.499 73.4295 344.498 73.4295C344.497 73.4295 344.496 73.4295 344.495 73.4295C344.494 73.4295 344.492 73.4295 344.491 73.4295C344.487 73.4295 344.484 73.4296 344.48 73.4296C344.473 73.4297 344.466 73.4298 344.458 73.4299C344.442 73.4302 344.424 73.4307 344.404 73.4314C344.365 73.4328 344.318 73.4352 344.264 73.4391C344.155 73.4469 344.016 73.4607 343.845 73.4845C343.501 73.5321 343.027 73.6201 342.404 73.7819C341.16 74.1051 339.313 74.7257 336.726 75.9184L338.401 79.5509ZM380.082 80.7887C383.045 81.2349 385.051 81.7384 388.409 81.71L388.375 77.7102C385.435 77.7351 383.941 77.3248 380.678 76.8333L380.082 80.7887ZM388.409 81.71C390.548 81.6919 393.352 81.3932 395.56 81.1116C396.677 80.9692 397.666 80.8279 398.375 80.7222C398.73 80.6694 399.016 80.6253 399.214 80.5943C399.313 80.5788 399.39 80.5666 399.442 80.5582C399.469 80.554 399.489 80.5507 399.503 80.5485C399.51 80.5474 399.515 80.5465 399.519 80.5459C399.521 80.5456 399.522 80.5453 399.523 80.5452C399.524 80.5451 399.524 80.545 399.525 80.545C399.525 80.5449 399.525 80.5449 399.525 80.5449C399.525 80.5449 399.525 80.5448 399.204 78.5708C398.882 76.5968 398.883 76.5968 398.883 76.5968C398.883 76.5968 398.883 76.5968 398.882 76.5968C398.882 76.5969 398.882 76.5969 398.882 76.5969C398.881 76.597 398.88 76.5972 398.879 76.5974C398.876 76.5979 398.872 76.5986 398.866 76.5996C398.854 76.6015 398.835 76.6044 398.811 76.6083C398.762 76.6161 398.69 76.6277 398.595 76.6425C398.406 76.6721 398.13 76.7146 397.786 76.7659C397.097 76.8685 396.137 77.0057 395.054 77.1438C392.863 77.4233 390.26 77.6942 388.375 77.7102L388.409 81.71ZM362.215 76.4754C365.585 76.7773 368.125 77.5339 370.795 78.3899C373.469 79.247 376.322 80.2225 380.082 80.7887L380.678 76.8333C377.293 76.3235 374.751 75.4575 372.016 74.5808C369.278 73.7031 366.397 72.8339 362.571 72.4914L362.215 76.4754ZM344.5 75.4295C344.785 77.4092 344.785 77.4092 344.785 77.4092C344.785 77.4092 344.785 77.4092 344.785 77.4092C344.785 77.4091 344.785 77.4091 344.786 77.409C344.787 77.4089 344.788 77.4087 344.79 77.4083C344.795 77.4077 344.802 77.4067 344.812 77.4053C344.831 77.4026 344.86 77.3984 344.9 77.393C344.978 77.3821 345.095 77.366 345.248 77.3456C345.553 77.3049 345.999 77.247 346.557 77.1793C347.673 77.0439 349.233 76.8697 351.007 76.7148C354.588 76.4021 358.915 76.1799 362.215 76.4754L362.571 72.4914C358.902 72.1627 354.282 72.4136 350.659 72.73C348.831 72.8896 347.225 73.069 346.075 73.2085C345.5 73.2783 345.038 73.3382 344.718 73.3809C344.559 73.4022 344.434 73.4192 344.349 73.431C344.307 73.4369 344.274 73.4415 344.252 73.4447C344.241 73.4463 344.232 73.4475 344.226 73.4484C344.223 73.4488 344.22 73.4492 344.219 73.4494C344.218 73.4495 344.217 73.4496 344.217 73.4497C344.216 73.4497 344.216 73.4498 344.216 73.4498C344.216 73.4498 344.216 73.4499 344.5 75.4295ZM404.663 144.151C405.877 138.446 406.631 133.977 406.692 129.413C406.753 124.83 406.114 120.244 404.649 114.271L400.764 115.224C402.178 120.99 402.747 125.222 402.692 129.36C402.637 133.517 401.952 137.672 400.751 143.318L404.663 144.151Z" fill="#282828"/>
<path d="M311.722 39.6433L310.103 40.818L311.722 39.6433ZM307.235 32.9444L305.452 33.8499L305.452 33.8499L307.235 32.9444ZM304.033 23.1467L305.985 22.7128C305.838 22.0504 305.365 21.5078 304.729 21.2717C304.093 21.0356 303.38 21.1382 302.836 21.5441L304.033 23.1467ZM323.843 53.6193L325.346 52.3L325.313 52.2629L325.279 52.2275L323.843 53.6193ZM244.918 53.1619C244.341 54.104 244.637 55.3352 245.579 55.9118C246.521 56.4885 247.752 56.1923 248.329 55.2502L244.918 53.1619ZM254.058 45.6166L252.892 43.9919L252.795 44.0618L252.706 44.1428L254.058 45.6166ZM287.446 32.0507L286.797 30.1589L286.797 30.1589L287.446 32.0507ZM294.968 29.1492L294.03 27.383L294.03 27.383L294.968 29.1492ZM269.493 36.5163L268.732 34.667L269.493 36.5163ZM335.636 78.7686C335.931 79.8331 337.033 80.457 338.097 80.1621C339.162 79.8672 339.786 78.7653 339.491 77.7008L335.636 78.7686ZM313.34 38.4685C311.401 35.7972 310.35 34.66 309.019 32.0388L305.452 33.8499C306.972 36.8434 308.343 38.393 310.103 40.818L313.34 38.4685ZM309.019 32.0388C308.199 30.4236 307.44 28.1281 306.874 26.1491C306.595 25.1771 306.372 24.313 306.219 23.6926C306.142 23.3828 306.083 23.1348 306.043 22.9656C306.024 22.881 306.009 22.8162 305.999 22.7734C305.994 22.7519 305.991 22.736 305.988 22.7258C305.987 22.7207 305.986 22.717 305.986 22.7149C305.986 22.7138 305.985 22.7131 305.985 22.7127C305.985 22.7125 305.985 22.7124 305.985 22.7125C305.985 22.7125 305.985 22.7125 305.985 22.7125C305.985 22.7126 305.985 22.7128 304.033 23.1467C302.081 23.5807 302.081 23.5808 302.081 23.581C302.081 23.5811 302.081 23.5813 302.081 23.5815C302.081 23.5819 302.081 23.5824 302.081 23.583C302.081 23.5842 302.082 23.5857 302.082 23.5876C302.083 23.5914 302.084 23.5967 302.086 23.6035C302.089 23.617 302.093 23.6364 302.099 23.6613C302.11 23.7111 302.127 23.7832 302.148 23.8754C302.191 24.0598 302.254 24.3248 302.336 24.6531C302.498 25.309 302.733 26.2213 303.028 27.2501C303.607 29.2726 304.45 31.8759 305.452 33.8499L309.019 32.0388ZM323.843 53.6193C325.279 52.2275 325.279 52.2275 325.279 52.2275C325.279 52.2275 325.279 52.2274 325.279 52.2274C325.279 52.2272 325.278 52.2269 325.278 52.2265C325.277 52.2257 325.276 52.2244 325.274 52.2226C325.271 52.219 325.265 52.2135 325.258 52.206C325.244 52.1912 325.222 52.1687 325.193 52.139C325.136 52.0795 325.051 51.9909 324.941 51.8756C324.72 51.6452 324.399 51.3084 324.001 50.8856C323.203 50.0398 322.095 48.8513 320.857 47.4822C318.366 44.7288 315.396 41.3006 313.34 38.4685L310.103 40.818C312.291 43.833 315.382 47.3928 317.89 50.1657C319.151 51.5597 320.278 52.7689 321.09 53.6299C321.497 54.0606 321.824 54.4046 322.051 54.6415C322.164 54.76 322.253 54.8517 322.313 54.9142C322.343 54.9454 322.366 54.9693 322.382 54.9856C322.389 54.9937 322.396 54.9999 322.4 55.0042C322.402 55.0063 322.403 55.008 322.404 55.0091C322.405 55.0097 322.405 55.0102 322.406 55.0105C322.406 55.0107 322.406 55.0108 322.406 55.0109C322.406 55.011 322.406 55.0111 323.843 53.6193ZM248.329 55.2502C249.453 53.4136 251.197 51.3868 252.722 49.771C253.473 48.9747 254.15 48.3 254.638 47.8254C254.882 47.5883 255.078 47.4019 255.211 47.276C255.278 47.2131 255.329 47.1653 255.363 47.1339C255.38 47.1182 255.393 47.1067 255.401 47.0993C255.404 47.0957 255.407 47.0931 255.409 47.0916C255.41 47.0908 255.41 47.0903 255.411 47.0901C255.411 47.09 255.411 47.09 255.411 47.09C255.411 47.09 255.411 47.0901 255.411 47.0901C255.41 47.0902 255.41 47.0903 254.058 45.6166C252.706 44.1428 252.706 44.1429 252.706 44.1431C252.706 44.1432 252.706 44.1434 252.705 44.1435C252.705 44.1438 252.705 44.1442 252.704 44.1447C252.703 44.1456 252.702 44.1467 252.7 44.1482C252.697 44.1511 252.693 44.1551 252.687 44.1602C252.676 44.1703 252.661 44.1848 252.641 44.2035C252.6 44.2408 252.543 44.2949 252.469 44.3644C252.321 44.5033 252.11 44.7043 251.85 44.9574C251.33 45.463 250.611 46.1793 249.812 47.0261C248.236 48.6965 246.263 50.9644 244.918 53.1619L248.329 55.2502ZM288.095 33.9425C290.929 32.9704 292.942 32.4906 295.906 30.9154L294.03 27.383C291.434 28.7623 289.919 29.088 286.797 30.1589L288.095 33.9425ZM295.906 30.9154C297.796 29.9114 300.145 28.352 301.974 27.0827C302.899 26.4406 303.711 25.859 304.291 25.4377C304.582 25.2269 304.815 25.0559 304.976 24.9371C305.057 24.8777 305.119 24.8313 305.162 24.7995C305.184 24.7836 305.2 24.7713 305.211 24.7629C305.217 24.7587 305.221 24.7554 305.224 24.7532C305.226 24.752 305.227 24.7511 305.228 24.7505C305.228 24.7502 305.229 24.7499 305.229 24.7497C305.229 24.7496 305.229 24.7495 305.229 24.7495C305.229 24.7494 305.23 24.7493 304.033 23.1467C302.836 21.5441 302.837 21.5441 302.837 21.544C302.837 21.5441 302.837 21.5441 302.837 21.5441C302.836 21.5441 302.836 21.5443 302.836 21.5444C302.836 21.5448 302.835 21.5454 302.834 21.5463C302.831 21.548 302.828 21.5506 302.823 21.5543C302.813 21.5615 302.798 21.5726 302.778 21.5873C302.739 21.6167 302.68 21.6605 302.603 21.7173C302.449 21.8308 302.223 21.9959 301.942 22.2003C301.378 22.6094 300.59 23.1742 299.693 23.7967C297.878 25.0565 295.695 26.4984 294.03 27.383L295.906 30.9154ZM270.255 38.3657C273.384 37.0772 275.986 36.5759 278.75 36.1023C281.517 35.6282 284.499 35.176 288.095 33.9425L286.797 30.1589C283.56 31.2694 280.905 31.6748 278.074 32.1598C275.24 32.6453 272.283 33.2048 268.732 34.667L270.255 38.3657ZM254.058 45.6166C255.225 47.2412 255.225 47.2413 255.225 47.2413C255.225 47.2413 255.225 47.2413 255.225 47.2412C255.225 47.2412 255.225 47.241 255.225 47.2407C255.226 47.2401 255.227 47.2392 255.229 47.2379C255.233 47.2352 255.239 47.231 255.247 47.2254C255.263 47.214 255.287 47.1967 255.319 47.1738C255.384 47.1279 255.48 47.0595 255.606 46.971C255.858 46.794 256.227 46.5368 256.69 46.2192C257.618 45.5838 258.922 44.7089 260.424 43.7525C263.456 41.8218 267.191 39.6271 270.255 38.3657L268.732 34.667C265.325 36.0697 261.343 38.4251 258.275 40.3785C256.727 41.3642 255.385 42.2648 254.43 42.9193C253.952 43.2468 253.57 43.5133 253.306 43.6986C253.174 43.7913 253.072 43.8637 253.002 43.9135C252.967 43.9383 252.94 43.9575 252.922 43.9707C252.912 43.9773 252.905 43.9824 252.9 43.9859C252.898 43.9877 252.896 43.9891 252.894 43.9901C252.894 43.9906 252.893 43.991 252.893 43.9913C252.893 43.9915 252.892 43.9916 252.892 43.9917C252.892 43.9918 252.892 43.9919 254.058 45.6166ZM339.491 77.7008C337.921 72.0332 336.432 67.9761 334.273 64.1553C332.121 60.3492 329.353 56.8656 325.346 52.3L322.34 54.9386C326.306 59.4575 328.849 62.6893 330.79 66.1236C332.723 69.5433 334.108 73.2517 335.636 78.7686L339.491 77.7008Z" fill="#282828"/>
<path d="M194.193 31.9674L193.614 33.8817L194.193 31.9674ZM186.57 29.344L185.697 31.1434L185.697 31.1434L186.57 29.344ZM178.095 23.4763L179.388 21.9502C178.87 21.5116 178.165 21.3654 177.516 21.562C176.866 21.7586 176.361 22.2711 176.173 22.9232L178.095 23.4763ZM212.298 35.7709L212.698 33.8112L212.649 33.8013L212.601 33.7939L212.298 35.7709ZM149.063 78.7347C149.063 79.8393 149.959 80.7347 151.063 80.7347C152.168 80.7347 153.063 79.8392 153.063 78.7347L149.063 78.7347ZM151.875 71.5895L153.746 72.2974L153.768 72.2385L153.787 72.1783L151.875 71.5895ZM170.267 40.5972L168.606 39.4827L168.606 39.4827L170.267 40.5972ZM174.504 33.7381L172.689 32.8987L172.689 32.8987L174.504 33.7381ZM158.667 55.0088L156.943 53.9962L158.667 55.0088ZM238.017 49.7225C238.895 50.3921 240.15 50.2228 240.82 49.3443C241.49 48.4658 241.32 47.2109 240.442 46.5413L238.017 49.7225ZM194.772 30.053C191.613 29.0974 190.088 28.8275 187.443 27.5445L185.697 31.1434C188.718 32.6087 190.746 33.0143 193.614 33.8817L194.772 30.053ZM187.443 27.5445C185.813 26.7539 183.821 25.384 182.173 24.1503C181.364 23.5443 180.663 22.991 180.166 22.5896C179.918 22.3892 179.721 22.2273 179.587 22.1164C179.52 22.061 179.469 22.0184 179.435 21.9902C179.419 21.976 179.406 21.9655 179.398 21.9588C179.394 21.9554 179.391 21.953 179.39 21.9516C179.389 21.9508 179.388 21.9504 179.388 21.9501C179.388 21.95 179.388 21.95 179.388 21.95C179.388 21.95 179.388 21.95 179.388 21.95C179.388 21.9501 179.388 21.9502 178.095 23.4763C176.803 25.0023 176.803 25.0024 176.803 25.0026C176.803 25.0026 176.803 25.0028 176.803 25.0029C176.804 25.0032 176.804 25.0035 176.804 25.0039C176.805 25.0046 176.806 25.0057 176.808 25.0069C176.811 25.0094 176.815 25.013 176.82 25.0174C176.831 25.0264 176.846 25.0391 176.866 25.0555C176.905 25.0884 176.962 25.1358 177.035 25.1962C177.18 25.317 177.391 25.49 177.654 25.7024C178.18 26.1267 178.919 26.7109 179.776 27.3523C181.46 28.6131 183.705 30.1771 185.697 31.1434L187.443 27.5445ZM212.298 35.7709C212.601 33.7939 212.601 33.7939 212.601 33.7939C212.601 33.7939 212.601 33.7939 212.601 33.7938C212.6 33.7938 212.6 33.7937 212.599 33.7937C212.598 33.7935 212.596 33.7932 212.594 33.7928C212.589 33.7921 212.581 33.7909 212.571 33.7893C212.551 33.7862 212.52 33.7814 212.479 33.775C212.398 33.7623 212.276 33.7432 212.119 33.7181C211.803 33.6679 211.344 33.5937 210.771 33.498C209.624 33.3065 208.024 33.0296 206.209 32.688C202.56 32.001 198.122 31.0661 194.772 30.053L193.614 33.8817C197.18 34.9602 201.794 35.927 205.469 36.6189C207.316 36.9667 208.945 37.2485 210.112 37.4434C210.696 37.5409 211.165 37.6167 211.489 37.6683C211.651 37.6941 211.777 37.7138 211.863 37.7272C211.905 37.7339 211.938 37.739 211.961 37.7424C211.972 37.7442 211.98 37.7455 211.986 37.7464C211.989 37.7468 211.991 37.7472 211.993 37.7474C211.994 37.7476 211.994 37.7476 211.995 37.7477C211.995 37.7478 211.995 37.7478 211.995 37.7478C211.996 37.7478 211.996 37.7479 212.298 35.7709ZM153.063 78.7347C153.063 76.3432 153.258 74.6724 153.44 73.6314C153.531 73.1108 153.619 72.747 153.678 72.5288C153.708 72.4196 153.73 72.3467 153.743 72.3086C153.749 72.2896 153.753 72.2793 153.753 72.2775C153.754 72.2766 153.753 72.2778 153.752 72.2811C153.751 72.2828 153.751 72.285 153.749 72.2877C153.749 72.289 153.748 72.2905 153.748 72.2922C153.748 72.293 153.747 72.2938 153.747 72.2947C153.747 72.2951 153.746 72.2958 153.746 72.296C153.746 72.2967 153.746 72.2974 151.875 71.5895C150.005 70.8816 150.005 70.8823 150.004 70.883C150.004 70.8833 150.004 70.884 150.004 70.8845C150.003 70.8855 150.003 70.8866 150.003 70.8876C150.002 70.8898 150.001 70.892 150 70.8945C149.998 70.8993 149.996 70.9046 149.994 70.9105C149.99 70.9222 149.985 70.9361 149.979 70.9521C149.968 70.9842 149.954 71.0248 149.938 71.0742C149.906 71.173 149.865 71.3068 149.819 71.4769C149.726 71.8171 149.611 72.3021 149.499 72.9428C149.275 74.2244 149.063 76.1262 149.063 78.7347L153.063 78.7347ZM171.928 41.7117C173.597 39.2237 174.91 37.6248 176.319 34.5776L172.689 32.8987C171.455 35.5669 170.446 36.742 168.606 39.4827L171.928 41.7117ZM176.319 34.5776C177.218 32.6352 178.146 29.9729 178.835 27.8562C179.184 26.7855 179.478 25.8315 179.686 25.1449C179.79 24.8014 179.872 24.5242 179.929 24.3322C179.957 24.2361 179.979 24.1613 179.994 24.11C180.001 24.0844 180.007 24.0647 180.011 24.0511C180.013 24.0444 180.014 24.0391 180.015 24.0355C180.016 24.0337 180.016 24.0322 180.017 24.0312C180.017 24.0307 180.017 24.0303 180.017 24.03C180.017 24.0298 180.017 24.0296 180.017 24.0296C180.017 24.0294 180.017 24.0293 178.095 23.4763C176.173 22.9232 176.173 22.9231 176.173 22.9231C176.173 22.9231 176.173 22.9231 176.173 22.9232C176.173 22.9232 176.173 22.9234 176.173 22.9237C176.173 22.9243 176.173 22.9253 176.172 22.9266C176.171 22.9294 176.17 22.9337 176.169 22.9395C176.165 22.9512 176.16 22.969 176.153 22.9927C176.139 23.04 176.119 23.1108 176.092 23.2025C176.038 23.3861 175.958 23.6537 175.857 23.9868C175.656 24.6534 175.37 25.5799 175.032 26.6179C174.348 28.7187 173.48 31.1873 172.689 32.8987L176.319 34.5776ZM160.392 56.0215C162.105 53.1031 163.875 51.1305 165.79 49.0822C167.708 47.0315 169.809 44.8686 171.928 41.7117L168.606 39.4827C166.699 42.3248 164.83 44.2526 162.868 46.3504C160.905 48.4506 158.887 50.6844 156.943 53.9962L160.392 56.0215ZM151.875 71.5895C153.787 72.1783 153.787 72.1784 153.787 72.1785C153.787 72.1784 153.787 72.1784 153.787 72.1784C153.787 72.1782 153.787 72.1779 153.787 72.1775C153.787 72.1766 153.788 72.175 153.788 72.1728C153.79 72.1685 153.792 72.1616 153.795 72.1523C153.801 72.1337 153.809 72.1053 153.821 72.0675C153.845 71.9919 153.88 71.879 153.927 71.7324C154.021 71.4391 154.159 71.0112 154.336 70.4781C154.691 69.4111 155.2 67.926 155.818 66.2562C157.066 62.885 158.714 58.8784 160.392 56.0215L156.943 53.9962C155.077 57.1733 153.329 61.4571 152.067 64.8677C151.43 66.5888 150.906 68.1175 150.54 69.2165C150.358 69.7664 150.214 70.2096 150.116 70.5167C150.067 70.6702 150.03 70.7898 150.004 70.8717C149.991 70.9126 149.981 70.9441 149.975 70.9658C149.971 70.9766 149.969 70.985 149.967 70.9908C149.966 70.9937 149.965 70.996 149.965 70.9977C149.965 70.9985 149.964 70.9992 149.964 70.9997C149.964 70.9999 149.964 71.0002 149.964 71.0003C149.964 71.0005 149.964 71.0007 151.875 71.5895ZM240.442 46.5413C235.773 42.9828 231.872 40.4008 227.588 38.4056C223.301 36.4085 218.712 35.0374 212.698 33.8112L211.899 37.7305C217.728 38.9191 221.99 40.2108 225.9 42.0316C229.813 43.8544 233.455 46.2455 238.017 49.7225L240.442 46.5413Z" fill="#282828"/>
<path d="M95.1163 81.5437L95.386 83.5254L95.1163 81.5437ZM87.0923 82.329L87.047 84.3285L87.047 84.3285L87.0923 82.329ZM76.9449 80.518L77.4857 78.5925C76.8324 78.409 76.1307 78.5693 75.6218 79.0182C75.1129 79.4671 74.8664 80.1434 74.967 80.8145L76.9449 80.518ZM113.163 77.4719L112.711 75.5236L112.663 75.5348L112.615 75.5483L113.163 77.4719ZM75.2183 145.244C75.7757 146.198 77.0006 146.519 77.9542 145.961C78.9078 145.404 79.229 144.179 78.6716 143.225L75.2183 145.244ZM73.1134 135.178L71.1303 135.437L71.1501 135.589L71.1928 135.736L73.1134 135.178ZM76.9474 99.3437L74.9736 99.0209L74.9736 99.0209L76.9474 99.3437ZM77.9476 91.3437L75.9476 91.3354L75.9476 91.3354L77.9476 91.3437ZM72.3932 117.274L70.4036 117.071L72.3932 117.274ZM142.354 79.4617C143.431 79.7053 144.502 79.0293 144.746 77.9519C144.989 76.8745 144.313 75.8037 143.236 75.5602L142.354 79.4617ZM94.8465 79.562C91.576 80.0071 90.0766 80.3961 87.1377 80.3295L87.047 84.3285C90.4035 84.4046 92.417 83.9295 95.386 83.5254L94.8465 79.562ZM87.1377 80.3295C85.3266 80.2885 82.9453 79.8713 80.9336 79.4348C79.9456 79.2204 79.0786 79.0085 78.4594 78.8503C78.1502 78.7714 77.9037 78.706 77.7359 78.6609C77.6521 78.6383 77.588 78.6208 77.5456 78.6091C77.5244 78.6033 77.5086 78.5989 77.4986 78.5961C77.4935 78.5947 77.4899 78.5937 77.4878 78.5931C77.4867 78.5928 77.486 78.5926 77.4857 78.5925C77.4855 78.5924 77.4854 78.5924 77.4854 78.5924C77.4854 78.5924 77.4855 78.5924 77.4855 78.5924C77.4856 78.5925 77.4857 78.5925 76.9449 80.518C76.4041 82.4435 76.4043 82.4435 76.4045 82.4436C76.4046 82.4436 76.4048 82.4437 76.405 82.4437C76.4054 82.4438 76.4058 82.444 76.4064 82.4441C76.4075 82.4445 76.4091 82.4449 76.4109 82.4454C76.4147 82.4465 76.42 82.4479 76.4266 82.4498C76.44 82.4535 76.4591 82.4588 76.4838 82.4656C76.533 82.4791 76.6044 82.4987 76.6958 82.5233C76.8786 82.5725 77.142 82.6423 77.4696 82.7259C78.1243 82.8931 79.0396 83.1169 80.0853 83.3438C82.1412 83.7899 84.8337 84.2783 87.047 84.3285L87.1377 80.3295ZM113.163 77.4719C112.615 75.5483 112.615 75.5482 112.615 75.5482C112.615 75.5483 112.615 75.5483 112.615 75.5483C112.615 75.5484 112.615 75.5485 112.614 75.5486C112.613 75.5489 112.611 75.5494 112.609 75.5501C112.604 75.5515 112.597 75.5536 112.587 75.5564C112.567 75.562 112.537 75.5705 112.497 75.5817C112.417 75.6041 112.299 75.6372 112.145 75.6799C111.838 75.7653 111.39 75.8888 110.829 76.0402C109.706 76.3431 108.135 76.7571 106.343 77.2011C102.739 78.0941 98.3139 79.09 94.8465 79.562L95.386 83.5254C99.0773 83.023 103.675 81.9831 107.305 81.0837C109.13 80.6316 110.728 80.2104 111.871 79.9021C112.442 79.7478 112.9 79.6217 113.216 79.5339C113.374 79.49 113.497 79.4557 113.58 79.4322C113.622 79.4205 113.654 79.4115 113.676 79.4053C113.687 79.4022 113.695 79.3999 113.701 79.3982C113.703 79.3974 113.706 79.3968 113.707 79.3964C113.708 79.3961 113.709 79.396 113.709 79.3958C113.709 79.3958 113.709 79.3957 113.71 79.3957C113.71 79.3956 113.71 79.3956 113.163 77.4719ZM78.6716 143.225C77.5581 141.32 76.6459 139.173 76.0061 137.471C75.6885 136.627 75.4432 135.906 75.278 135.399C75.1955 135.146 75.1332 134.947 75.0922 134.813C75.0717 134.746 75.0565 134.696 75.0467 134.663C75.0419 134.647 75.0384 134.635 75.0362 134.627C75.0352 134.624 75.0344 134.621 75.0341 134.62C75.0339 134.619 75.0338 134.619 75.0338 134.619C75.0338 134.619 75.0338 134.619 75.0338 134.619C75.0338 134.619 75.0339 134.619 75.0339 134.62C75.0339 134.62 75.034 134.62 73.1134 135.178C71.1928 135.736 71.1928 135.736 71.1929 135.736C71.1929 135.736 71.193 135.736 71.1931 135.737C71.1932 135.737 71.1933 135.738 71.1935 135.738C71.1939 135.739 71.1943 135.741 71.1948 135.743C71.1958 135.746 71.1972 135.751 71.199 135.757C71.2025 135.769 71.2073 135.785 71.2136 135.806C71.2262 135.848 71.2444 135.909 71.2681 135.986C71.3153 136.14 71.3846 136.361 71.4748 136.638C71.6551 137.192 71.9201 137.969 72.262 138.879C72.9412 140.685 73.9448 143.065 75.2183 145.244L78.6716 143.225ZM78.9212 99.6665C79.4048 96.7094 79.9336 94.7093 79.9476 91.352L75.9476 91.3354C75.9354 94.2751 75.5063 95.7635 74.9736 99.0209L78.9212 99.6665ZM79.9476 91.352C79.9565 89.2121 79.6932 86.4049 79.4395 84.1934C79.3112 83.0747 79.1824 82.0845 79.0857 81.3738C79.0373 81.0182 78.9968 80.7319 78.9684 80.5337C78.9541 80.4345 78.9429 80.3574 78.9351 80.3046C78.9312 80.2782 78.9282 80.2579 78.9262 80.2439C78.9251 80.237 78.9243 80.2316 78.9238 80.2278C78.9235 80.226 78.9233 80.2245 78.9231 80.2234C78.923 80.2229 78.923 80.2225 78.9229 80.2222C78.9229 80.222 78.9229 80.2218 78.9228 80.2217C78.9228 80.2216 78.9228 80.2215 76.9449 80.518C74.967 80.8145 74.967 80.8144 74.967 80.8144C74.967 80.8144 74.967 80.8144 74.967 80.8145C74.967 80.8146 74.9671 80.8147 74.9671 80.815C74.9672 80.8156 74.9673 80.8166 74.9675 80.818C74.968 80.8209 74.9686 80.8253 74.9695 80.8313C74.9713 80.8433 74.974 80.8617 74.9776 80.8861C74.9848 80.9349 74.9954 81.0078 75.009 81.1025C75.0362 81.2919 75.0753 81.5683 75.1222 81.9131C75.2161 82.6032 75.3411 83.5647 75.4656 84.6493C75.7174 86.8443 75.9555 89.45 75.9476 91.3354L79.9476 91.352ZM74.3828 117.478C74.7272 114.111 75.5158 111.581 76.4054 108.922C77.2962 106.26 78.3076 103.419 78.9212 99.6665L74.9736 99.0209C74.4212 102.399 73.5232 104.93 72.6121 107.653C71.6999 110.38 70.7944 113.25 70.4036 117.071L74.3828 117.478ZM73.1134 135.178C75.0965 134.918 75.0965 134.918 75.0965 134.918C75.0965 134.918 75.0965 134.918 75.0965 134.918C75.0965 134.918 75.0964 134.918 75.0964 134.917C75.0962 134.916 75.096 134.915 75.0957 134.912C75.0951 134.908 75.0942 134.901 75.093 134.891C75.0905 134.872 75.0867 134.842 75.0818 134.803C75.0719 134.724 75.0573 134.607 75.0388 134.454C75.0019 134.149 74.9497 133.702 74.889 133.143C74.7677 132.026 74.6132 130.463 74.4807 128.688C74.2132 125.103 74.0457 120.774 74.3828 117.478L70.4036 117.071C70.0286 120.736 70.2212 125.359 70.4918 128.985C70.6284 130.815 70.7874 132.424 70.9124 133.575C70.9749 134.151 71.029 134.614 71.0677 134.934C71.087 135.094 71.1024 135.218 71.1132 135.303C71.1185 135.346 71.1227 135.379 71.1256 135.401C71.1271 135.412 71.1282 135.421 71.129 135.427C71.1294 135.43 71.1297 135.432 71.1299 135.434C71.13 135.435 71.1301 135.436 71.1302 135.436C71.1302 135.437 71.1302 135.437 71.1302 135.437C71.1303 135.437 71.1303 135.437 73.1134 135.178ZM143.236 75.5602C137.51 74.266 132.889 73.5407 128.163 73.5081C123.433 73.4754 118.69 74.1372 112.711 75.5236L113.614 79.4202C119.41 78.0763 123.823 77.4782 128.136 77.508C132.453 77.5378 136.76 78.1972 142.354 79.4617L143.236 75.5602Z" fill="#282828"/>
<path d="M34.1763 176.936L35.4962 178.439L34.1763 176.936ZM27.9229 182.025L28.9901 183.716L28.9901 183.716L27.9229 182.025ZM18.4649 186.123L17.8516 184.22C17.2057 184.428 16.7094 184.949 16.5334 185.605C16.3574 186.26 16.5257 186.96 16.9804 187.463L18.4649 186.123ZM46.9664 163.57L45.5132 162.196L45.4794 162.231L45.4473 162.269L46.9664 163.57ZM53.8396 242.196C54.8311 242.683 56.0295 242.274 56.5162 241.282C57.0029 240.291 56.5937 239.092 55.6021 238.606L53.8396 242.196ZM45.4781 233.796L43.9688 235.108L44.0474 235.198L44.1363 235.279L45.4781 233.796ZM28.8706 201.812L27.0473 202.634L27.0473 202.634L28.8706 201.812ZM25.2832 194.592L23.6118 195.69L25.2832 194.592ZM34.984 219.273L33.2133 220.202L34.984 219.273ZM71.274 150.104C72.3065 149.712 72.8254 148.557 72.433 147.524C72.0406 146.492 70.8854 145.973 69.8529 146.365L71.274 150.104ZM32.8563 175.434C30.3766 177.612 29.3419 178.765 26.8557 180.333L28.9901 183.716C31.8295 181.925 33.2451 180.416 35.4962 178.439L32.8563 175.434ZM26.8557 180.333C25.3236 181.3 23.1085 182.268 21.1906 183.016C20.2487 183.384 19.409 183.686 18.8055 183.896C18.5042 184.002 18.2627 184.083 18.0979 184.138C18.0155 184.166 17.9524 184.187 17.9106 184.2C17.8897 184.207 17.8742 184.212 17.8643 184.216C17.8593 184.217 17.8557 184.218 17.8536 184.219C17.8526 184.219 17.8519 184.22 17.8515 184.22C17.8513 184.22 17.8513 184.22 17.8513 184.22C17.8513 184.22 17.8514 184.22 17.8514 184.22C17.8515 184.22 17.8516 184.22 18.4649 186.123C19.0783 188.027 19.0785 188.027 19.0787 188.027C19.0787 188.027 19.079 188.027 19.0791 188.027C19.0795 188.027 19.08 188.026 19.0806 188.026C19.0817 188.026 19.0832 188.025 19.0851 188.025C19.0888 188.024 19.0939 188.022 19.1005 188.02C19.1137 188.015 19.1326 188.009 19.1569 188.001C19.2054 187.985 19.2757 187.962 19.3655 187.932C19.5451 187.872 19.8031 187.785 20.1224 187.673C20.7604 187.451 21.6469 187.132 22.6439 186.743C24.6039 185.979 27.1177 184.898 28.9901 183.716L26.8557 180.333ZM46.9664 163.57C45.4473 162.269 45.4473 162.269 45.4473 162.269C45.4473 162.269 45.4472 162.269 45.4472 162.269C45.447 162.269 45.4468 162.27 45.4464 162.27C45.4456 162.271 45.4445 162.272 45.4428 162.274C45.4396 162.278 45.4346 162.284 45.4279 162.292C45.4144 162.307 45.3941 162.331 45.3671 162.362C45.3132 162.425 45.2329 162.518 45.1284 162.638C44.9194 162.879 44.6139 163.23 44.2299 163.666C43.4618 164.539 42.3813 165.752 41.1331 167.113C38.6229 169.849 35.4853 173.124 32.8563 175.434L35.4962 178.439C38.295 175.98 41.5525 172.572 44.0805 169.817C45.3514 168.432 46.4507 167.197 47.2326 166.309C47.6237 165.865 47.9358 165.506 48.1506 165.259C48.258 165.135 48.3412 165.038 48.3978 164.973C48.4261 164.94 48.4477 164.915 48.4625 164.898C48.4698 164.889 48.4755 164.882 48.4793 164.878C48.4813 164.876 48.4828 164.874 48.4838 164.873C48.4843 164.872 48.4848 164.872 48.4851 164.871C48.4852 164.871 48.4853 164.871 48.4854 164.871C48.4855 164.871 48.4856 164.871 46.9664 163.57ZM55.6021 238.606C53.6691 237.657 51.4891 236.109 49.7387 234.741C48.8761 234.067 48.1415 233.455 47.6235 233.013C47.3649 232.793 47.1611 232.615 47.0233 232.493C46.9544 232.433 46.9021 232.386 46.8677 232.355C46.8506 232.34 46.8379 232.329 46.8298 232.322C46.8258 232.318 46.823 232.315 46.8213 232.314C46.8205 232.313 46.82 232.313 46.8197 232.312C46.8196 232.312 46.8196 232.312 46.8196 232.312C46.8196 232.312 46.8197 232.312 46.8197 232.312C46.8198 232.313 46.82 232.313 45.4781 233.796C44.1363 235.279 44.1364 235.279 44.1366 235.279C44.1367 235.279 44.1369 235.279 44.137 235.279C44.1374 235.28 44.1378 235.28 44.1383 235.281C44.1393 235.281 44.1406 235.283 44.1422 235.284C44.1453 235.287 44.1497 235.291 44.1553 235.296C44.1664 235.306 44.1823 235.32 44.2028 235.338C44.2437 235.375 44.3029 235.428 44.3789 235.495C44.531 235.629 44.7507 235.82 45.0269 236.056C45.5785 236.527 46.3585 237.176 47.2759 237.893C49.0853 239.307 51.5267 241.061 53.8396 242.196L55.6021 238.606ZM30.694 200.99C29.4629 198.258 28.7983 196.299 26.9546 193.493L23.6118 195.69C25.2261 198.147 25.6911 199.624 27.0473 202.634L30.694 200.99ZM26.9546 193.493C25.7795 191.705 24.0087 189.511 22.5751 187.808C21.8499 186.946 21.1954 186.192 20.722 185.653C20.4852 185.384 20.2933 185.168 20.16 185.018C20.0934 184.943 20.0414 184.885 20.0057 184.846C19.9879 184.826 19.9741 184.81 19.9647 184.8C19.96 184.795 19.9564 184.791 19.9538 184.788C19.9525 184.786 19.9515 184.785 19.9508 184.785C19.9505 184.784 19.9502 184.784 19.95 184.784C19.9499 184.784 19.9497 184.783 19.9497 184.783C19.9496 184.783 19.9495 184.783 18.4649 186.123C16.9804 187.463 16.9803 187.463 16.9803 187.463C16.9803 187.463 16.9803 187.463 16.9803 187.463C16.9804 187.463 16.9805 187.464 16.9807 187.464C16.9811 187.464 16.9818 187.465 16.9828 187.466C16.9847 187.468 16.9877 187.472 16.9917 187.476C16.9999 187.485 17.0123 187.499 17.0287 187.517C17.0617 187.554 17.1108 187.609 17.1745 187.68C17.3018 187.823 17.4872 188.032 17.7168 188.293C18.1764 188.817 18.812 189.549 19.5151 190.384C20.938 192.074 22.5763 194.114 23.6118 195.69L26.9546 193.493ZM36.7547 218.343C35.1812 215.346 34.4404 212.802 33.7122 210.094C32.9832 207.383 32.2561 204.456 30.694 200.99L27.0473 202.634C28.4536 205.754 29.1037 208.36 29.8494 211.133C30.5961 213.91 31.4277 216.802 33.2133 220.202L36.7547 218.343ZM45.4781 233.796C46.9874 232.483 46.9875 232.484 46.9875 232.484C46.9875 232.484 46.9875 232.484 46.9875 232.483C46.9874 232.483 46.9872 232.483 46.9869 232.483C46.9862 232.482 46.9852 232.481 46.9837 232.479C46.9807 232.476 46.976 232.47 46.9696 232.463C46.9568 232.448 46.9374 232.426 46.9115 232.396C46.8599 232.336 46.7828 232.246 46.683 232.129C46.4833 231.894 46.193 231.551 45.8338 231.119C45.1149 230.254 44.1227 229.038 43.0311 227.631C40.8271 224.791 38.295 221.276 36.7547 218.343L33.2133 220.202C34.9263 223.464 37.6413 227.21 39.8711 230.083C40.9963 231.533 42.0176 232.786 42.7581 233.676C43.1285 234.122 43.4293 234.478 43.6383 234.723C43.7428 234.846 43.8245 234.941 43.8805 235.006C43.9084 235.038 43.93 235.063 43.9449 235.08C43.9523 235.089 43.958 235.096 43.962 235.1C43.964 235.102 43.9656 235.104 43.9667 235.106C43.9673 235.106 43.9677 235.107 43.9681 235.107C43.9683 235.107 43.9684 235.108 43.9685 235.108C43.9687 235.108 43.9688 235.108 45.4781 233.796ZM69.8529 146.365C64.4097 148.434 60.4266 150.13 56.7408 152.465C53.0401 154.81 49.7236 157.743 45.5132 162.196L48.4197 164.944C52.5141 160.614 55.5718 157.941 58.8814 155.844C62.2058 153.738 65.8688 152.159 71.274 150.104L69.8529 146.365Z" fill="#282828"/>
<path d="M30.1164 280.455L31.9205 281.319L30.1164 280.455ZM26.3648 287.592L28.0107 288.728L28.0107 288.728L26.3648 287.592ZM19.2773 295.076L17.9654 293.566C17.4532 294.012 17.2017 294.686 17.2972 295.358C17.3928 296.03 17.8225 296.607 18.4386 296.892L19.2773 295.076ZM36.6273 263.139L34.7511 262.446L34.734 262.493L34.7192 262.54L36.6273 263.139ZM70.9584 332.232C72.0614 332.29 73.0027 331.443 73.0607 330.34C73.1188 329.237 72.2717 328.295 71.1686 328.237L70.9584 332.232ZM62.8467 328.304L61.9743 330.103L61.979 330.106L62.8467 328.304ZM35.0096 305.415L33.6557 306.887L33.6557 306.887L35.0096 305.415ZM28.8742 300.185L27.7686 301.852L28.8742 300.185ZM47.4909 319.071L46.2279 320.621L47.4909 319.071ZM54.4514 242.175C55.2467 241.408 55.2701 240.142 54.5036 239.347C53.7371 238.551 52.471 238.528 51.6756 239.295L54.4514 242.175ZM28.3123 279.592C26.8876 282.57 26.389 284.036 24.7189 286.455L28.0107 288.728C29.9181 285.965 30.6272 284.021 31.9205 281.319L28.3123 279.592ZM24.7189 286.455C23.6898 287.946 22.0331 289.707 20.5633 291.148C19.8413 291.856 19.188 292.464 18.7157 292.894C18.4799 293.109 18.2899 293.28 18.16 293.395C18.0951 293.453 18.0452 293.497 18.0122 293.526C17.9956 293.54 17.9833 293.551 17.9755 293.558C17.9716 293.561 17.9687 293.564 17.967 293.565C17.9662 293.566 17.9656 293.566 17.9654 293.567C17.9652 293.567 17.9652 293.567 17.9652 293.567C17.9652 293.567 17.9652 293.567 17.9653 293.567C17.9653 293.567 17.9654 293.566 19.2773 295.076C20.5892 296.586 20.5893 296.586 20.5895 296.585C20.5895 296.585 20.5897 296.585 20.5899 296.585C20.5902 296.585 20.5905 296.585 20.591 296.584C20.5919 296.583 20.5931 296.582 20.5945 296.581C20.5975 296.578 20.6016 296.575 20.6068 296.57C20.6173 296.561 20.6322 296.548 20.6514 296.531C20.6898 296.498 20.7453 296.449 20.8161 296.386C20.9577 296.26 21.1606 296.078 21.4105 295.85C21.9098 295.395 22.5996 294.753 23.3637 294.004C24.8658 292.531 26.7529 290.55 28.0107 288.728L24.7189 286.455ZM36.6273 263.139C34.7192 262.54 34.7192 262.54 34.7192 262.54C34.7192 262.54 34.7192 262.54 34.7192 262.54C34.7191 262.54 34.719 262.54 34.7188 262.541C34.7185 262.542 34.7179 262.544 34.7172 262.546C34.7157 262.551 34.7133 262.558 34.7102 262.568C34.704 262.588 34.6946 262.617 34.6821 262.657C34.6571 262.736 34.6198 262.853 34.5711 263.005C34.4736 263.308 34.3304 263.751 34.1487 264.303C33.7852 265.407 33.2682 266.947 32.6548 268.689C31.4212 272.191 29.8226 276.436 28.3123 279.592L31.9205 281.319C33.5284 277.958 35.1852 273.545 36.4276 270.018C37.0521 268.245 37.5781 266.678 37.9482 265.554C38.1333 264.991 38.2795 264.539 38.3797 264.227C38.4298 264.071 38.4685 263.95 38.4947 263.867C38.5078 263.826 38.5178 263.794 38.5246 263.772C38.528 263.762 38.5306 263.753 38.5324 263.748C38.5333 263.745 38.534 263.743 38.5345 263.741C38.5347 263.74 38.5349 263.74 38.5351 263.739C38.5351 263.739 38.5352 263.739 38.5352 263.739C38.5353 263.739 38.5353 263.738 36.6273 263.139ZM71.1686 328.237C69.0115 328.124 67.1236 327.681 65.7735 327.265C65.1012 327.057 64.5696 326.859 64.2134 326.715C64.0356 326.644 63.9021 326.586 63.8173 326.548C63.775 326.53 63.7448 326.516 63.7275 326.508C63.7188 326.504 63.7134 326.501 63.7112 326.5C63.7101 326.5 63.7098 326.5 63.7103 326.5C63.7106 326.5 63.7111 326.5 63.7118 326.5C63.7121 326.501 63.7125 326.501 63.713 326.501C63.7132 326.501 63.7136 326.501 63.7137 326.501C63.7141 326.502 63.7145 326.502 62.8467 328.304C61.979 330.106 61.9794 330.106 61.9798 330.106C61.98 330.106 61.9805 330.106 61.9808 330.107C61.9814 330.107 61.9822 330.107 61.9829 330.108C61.9845 330.108 61.9862 330.109 61.9882 330.11C61.9921 330.112 61.9969 330.114 62.0026 330.117C62.0139 330.122 62.0286 330.129 62.0467 330.138C62.0828 330.154 62.1324 330.177 62.1948 330.205C62.3195 330.26 62.4959 330.336 62.7193 330.426C63.1658 330.605 63.8028 330.843 64.5942 331.087C66.1717 331.574 68.3922 332.097 70.9584 332.232L71.1686 328.237ZM36.3636 303.943C34.1583 301.915 32.7775 300.374 29.9798 298.518L27.7686 301.852C30.2183 303.477 31.2264 304.653 33.6557 306.887L36.3636 303.943ZM29.9798 298.518C28.1965 297.335 25.7062 296.013 23.7188 295.011C22.7135 294.503 21.8154 294.067 21.1684 293.757C20.8446 293.602 20.5832 293.479 20.4019 293.394C20.3113 293.351 20.2407 293.318 20.1923 293.296C20.1681 293.285 20.1495 293.276 20.1367 293.27C20.1303 293.267 20.1253 293.265 20.1219 293.263C20.1202 293.262 20.1188 293.262 20.1178 293.261C20.1173 293.261 20.117 293.261 20.1167 293.261C20.1165 293.261 20.1164 293.261 20.1163 293.261C20.1162 293.261 20.1161 293.26 19.2773 295.076C18.4386 296.892 18.4385 296.892 18.4385 296.892C18.4385 296.892 18.4385 296.892 18.4385 296.892C18.4386 296.892 18.4388 296.892 18.4391 296.892C18.4396 296.892 18.4405 296.893 18.4418 296.893C18.4444 296.894 18.4485 296.896 18.454 296.899C18.465 296.904 18.4818 296.912 18.5042 296.922C18.5489 296.943 18.6156 296.974 18.7022 297.015C18.8755 297.096 19.1279 297.215 19.4418 297.366C20.07 297.666 20.9422 298.09 21.9168 298.582C23.8893 299.577 26.1974 300.809 27.7686 301.852L29.9798 298.518ZM48.7539 317.52C46.1298 315.383 44.4491 313.334 42.7157 311.13C40.9801 308.923 39.1618 306.517 36.3636 303.943L33.6557 306.887C36.1749 309.205 37.7962 311.345 39.5715 313.603C41.3489 315.863 43.2501 318.196 46.2279 320.621L48.7539 317.52ZM62.8467 328.304C63.7192 326.504 63.7193 326.504 63.7193 326.504C63.7193 326.504 63.7193 326.504 63.7192 326.504C63.7191 326.504 63.7188 326.504 63.7184 326.504C63.7175 326.503 63.7161 326.503 63.714 326.502C63.7099 326.5 63.7035 326.496 63.6947 326.492C63.6772 326.484 63.6504 326.471 63.6149 326.453C63.5438 326.418 63.4376 326.366 63.2998 326.297C63.0241 326.16 62.6223 325.959 62.1222 325.702C61.1216 325.19 59.7311 324.461 58.1746 323.596C55.0323 321.85 51.3227 319.612 48.7539 317.52L46.2279 320.621C49.0846 322.948 53.053 325.327 56.2321 327.093C57.8364 327.984 59.2676 328.734 60.2984 329.262C60.8141 329.527 61.2305 329.736 61.5191 329.879C61.6634 329.951 61.7758 330.006 61.8528 330.044C61.8914 330.063 61.921 330.077 61.9414 330.087C61.9516 330.092 61.9595 330.096 61.965 330.099C61.9677 330.1 61.9699 330.101 61.9714 330.102C61.9722 330.102 61.9728 330.103 61.9733 330.103C61.9735 330.103 61.9738 330.103 61.9739 330.103C61.9741 330.103 61.9743 330.103 62.8467 328.304ZM51.6756 239.295C47.5699 243.251 44.3662 246.147 41.7199 249.455C39.0162 252.836 36.901 256.624 34.7511 262.446L38.5035 263.832C40.5403 258.315 42.465 254.928 44.8436 251.954C47.2796 248.908 50.2006 246.271 54.4514 242.175L51.6756 239.295Z" fill="#282828"/>
<path d="M81.0715 383.555L83.0577 383.321L81.0715 383.555ZM81.7146 391.592L83.713 391.672L83.713 391.672L81.7146 391.592ZM79.7242 401.706L77.8086 401.131C77.6136 401.781 77.7614 402.485 78.2013 403.002C78.6411 403.519 79.3129 403.777 79.9857 403.688L79.7242 401.706ZM77.3198 365.44L75.3638 365.857L75.3741 365.905L75.3867 365.953L77.3198 365.44ZM98.547 402.036L98.1894 404.004L98.1894 404.004L98.547 402.036ZM90.566 400.895L90.5223 402.894L90.5223 402.894L90.566 400.895ZM116.394 406.907L116.156 408.893L116.394 406.907ZM134.308 406.504L134.532 408.491L134.651 408.478L134.768 408.45L134.308 406.504ZM79.2625 337.21C79.525 336.137 78.8681 335.055 77.7952 334.792C76.7223 334.529 75.6397 335.186 75.3771 336.259L79.2625 337.21ZM143.349 405.656C144.365 405.223 144.837 404.047 144.403 403.032C143.969 402.016 142.794 401.544 141.778 401.978L143.349 405.656ZM79.0853 383.79C79.4724 387.068 79.8349 388.574 79.7162 391.511L83.713 391.672C83.8484 388.318 83.4091 386.296 83.0577 383.321L79.0853 383.79ZM79.7162 391.511C79.6431 393.321 79.1839 395.695 78.7118 397.698C78.4799 398.682 78.2527 399.545 78.0836 400.162C77.9992 400.47 77.9295 400.715 77.8814 400.882C77.8573 400.965 77.8387 401.029 77.8263 401.071C77.82 401.092 77.8154 401.108 77.8124 401.118C77.8109 401.123 77.8099 401.127 77.8092 401.129C77.8089 401.13 77.8087 401.13 77.8086 401.131C77.8085 401.131 77.8085 401.131 77.8085 401.131C77.8085 401.131 77.8085 401.131 77.8085 401.131C77.8086 401.131 77.8086 401.131 79.7242 401.706C81.6399 402.28 81.6399 402.28 81.64 402.28C81.64 402.28 81.6401 402.28 81.6401 402.279C81.6402 402.279 81.6404 402.279 81.6405 402.278C81.6409 402.277 81.6413 402.275 81.6419 402.274C81.643 402.27 81.6446 402.265 81.6465 402.258C81.6505 402.245 81.6561 402.226 81.6633 402.201C81.6778 402.152 81.6986 402.081 81.7248 401.99C81.7772 401.808 81.8517 401.546 81.9411 401.22C82.1199 400.568 82.3598 399.657 82.6052 398.616C83.0877 396.568 83.6236 393.885 83.713 391.672L79.7162 391.511ZM77.3198 365.44C75.3867 365.953 75.3867 365.953 75.3867 365.953C75.3867 365.953 75.3867 365.953 75.3868 365.953C75.3868 365.953 75.3869 365.953 75.3871 365.954C75.3874 365.955 75.3878 365.957 75.3885 365.959C75.3898 365.964 75.3917 365.972 75.3944 365.982C75.3996 366.001 75.4076 366.032 75.4181 366.072C75.439 366.152 75.4701 366.27 75.51 366.425C75.59 366.734 75.7055 367.184 75.847 367.748C76.1299 368.876 76.5161 370.454 76.9283 372.253C77.7574 375.873 78.6748 380.315 79.0853 383.79L83.0577 383.321C82.6207 379.621 81.6623 375.005 80.8273 371.36C80.4076 369.528 80.0147 367.922 79.7267 366.774C79.5826 366.2 79.4646 365.74 79.3824 365.423C79.3413 365.264 79.3092 365.141 79.2872 365.057C79.2762 365.015 79.2677 364.983 79.2619 364.961C79.2591 364.95 79.2568 364.942 79.2553 364.936C79.2546 364.933 79.254 364.931 79.2536 364.929C79.2533 364.928 79.2532 364.928 79.2531 364.927C79.253 364.927 79.253 364.927 79.2529 364.927C79.2529 364.927 79.2528 364.926 77.3198 365.44ZM98.9047 400.068C95.9567 399.533 93.9663 398.968 90.6097 398.895L90.5223 402.894C93.4613 402.958 94.9419 403.414 98.1894 404.004L98.9047 400.068ZM90.6097 398.895C88.4703 398.848 85.6589 399.062 83.4432 399.276C82.3224 399.385 81.3301 399.496 80.6178 399.58C80.2614 399.622 79.9744 399.658 79.7757 399.683C79.6764 399.695 79.5991 399.705 79.5461 399.712C79.5197 399.715 79.4993 399.718 79.4853 399.72C79.4783 399.721 79.4729 399.721 79.4691 399.722C79.4673 399.722 79.4658 399.722 79.4647 399.722C79.4642 399.722 79.4638 399.723 79.4635 399.723C79.4633 399.723 79.4631 399.723 79.463 399.723C79.4629 399.723 79.4628 399.723 79.7242 401.706C79.9857 403.688 79.9856 403.688 79.9856 403.688C79.9856 403.688 79.9856 403.688 79.9856 403.688C79.9857 403.688 79.9859 403.688 79.9862 403.688C79.9868 403.688 79.9878 403.688 79.9892 403.688C79.9921 403.688 79.9965 403.687 80.0025 403.686C80.0146 403.685 80.033 403.682 80.0574 403.679C80.1063 403.673 80.1794 403.663 80.2743 403.651C80.4642 403.628 80.7413 403.593 81.0869 403.553C81.7785 403.471 82.7421 403.363 83.8287 403.258C86.0278 403.045 88.6373 402.853 90.5223 402.894L90.6097 398.895ZM116.633 404.922C113.273 404.518 110.757 403.684 108.114 402.748C105.468 401.81 102.645 400.748 98.9047 400.068L98.1894 404.004C101.557 404.616 104.071 405.559 106.778 406.518C109.489 407.478 112.343 408.435 116.156 408.893L116.633 404.922ZM134.308 406.504C134.083 404.517 134.083 404.517 134.083 404.517C134.083 404.517 134.083 404.517 134.083 404.517C134.083 404.517 134.083 404.517 134.082 404.517C134.081 404.517 134.08 404.517 134.077 404.517C134.073 404.518 134.066 404.519 134.056 404.52C134.037 404.522 134.007 404.525 133.968 404.529C133.889 404.538 133.771 404.55 133.618 404.566C133.312 404.598 132.865 404.642 132.305 404.693C131.185 404.794 129.62 404.921 127.843 405.022C124.254 405.226 119.922 405.317 116.633 404.922L116.156 408.893C119.814 409.333 124.439 409.222 128.07 409.016C129.902 408.911 131.513 408.781 132.666 408.676C133.243 408.624 133.707 408.578 134.027 408.545C134.188 408.529 134.312 408.515 134.398 408.506C134.44 408.502 134.473 408.498 134.496 408.495C134.507 408.494 134.516 408.493 134.522 408.493C134.525 408.492 134.527 408.492 134.529 408.492C134.53 408.492 134.53 408.492 134.531 408.492C134.531 408.492 134.531 408.491 134.532 408.491C134.532 408.491 134.532 408.491 134.308 406.504ZM75.3771 336.259C73.9758 341.985 73.3085 346.381 73.3397 350.895C73.3708 355.392 74.0952 359.909 75.3638 365.857L79.2758 365.022C78.0229 359.148 77.3679 354.95 77.3396 350.868C77.3115 346.803 77.905 342.757 79.2625 337.21L75.3771 336.259ZM141.778 401.978C139.949 402.759 137.968 403.405 136.424 403.86C135.656 404.086 135.006 404.262 134.55 404.381C134.323 404.44 134.144 404.485 134.023 404.515C133.963 404.53 133.918 404.541 133.888 404.548C133.873 404.552 133.862 404.554 133.855 404.556C133.852 404.557 133.85 404.557 133.848 404.558C133.848 404.558 133.847 404.558 133.847 404.558C133.847 404.558 133.847 404.558 133.847 404.558C133.847 404.558 133.847 404.558 133.847 404.558C133.847 404.558 133.847 404.558 134.308 406.504C134.768 408.45 134.768 408.45 134.768 408.45C134.768 408.45 134.768 408.45 134.768 408.45C134.769 408.45 134.769 408.45 134.77 408.45C134.771 408.45 134.772 408.449 134.773 408.449C134.776 408.448 134.78 408.447 134.785 408.446C134.795 408.444 134.81 408.44 134.828 408.436C134.865 408.427 134.917 408.414 134.985 408.398C135.12 408.364 135.315 408.315 135.56 408.251C136.049 408.124 136.74 407.937 137.554 407.697C139.173 407.22 141.319 406.523 143.349 405.656L141.778 401.978Z" fill="#282828"/>
<path d="M340.98 407.859C340.98 407.859 335.373 404.857 331.463 403.899C328.405 403.149 326.597 403.192 323.459 402.933C316.259 402.338 304.959 403.011 304.959 403.011C304.959 403.011 294.226 404.041 287.459 403.085C283.286 402.494 280.763 402.424 276.949 400.629C273.168 398.849 268.422 394.165 268.422 394.165C268.422 394.165 264.381 389.23 262.386 385.69C260.623 382.563 259.648 380.369 258.693 377.475M341.64 407.356C341.64 407.356 341.453 400.999 342.339 397.072C343.032 394 343.876 392.401 345.044 389.477C347.722 382.767 353.363 372.953 353.363 372.953C353.363 372.953 359.071 363.806 361.233 357.322C362.565 353.323 363.628 351.034 363.721 346.819C363.814 342.642 361.738 336.304 361.738 336.304C361.738 336.304 359.123 330.487 356.844 327.123C355.221 324.726 352.645 320.916 351.064 319.235" stroke="#282828" stroke-width="4" stroke-linecap="round"/>
<path d="M435.304 240.069C435.304 240.069 429.646 242.974 426.635 245.645C424.279 247.734 423.285 249.245 421.287 251.679C416.703 257.262 410.829 266.939 410.829 266.939C410.829 266.939 405.573 276.353 400.937 281.375C398.077 284.472 396.585 286.507 392.939 288.623C389.325 290.72 382.772 291.96 382.772 291.96C382.772 291.96 376.415 292.476 372.369 292.104C368.794 291.775 366.435 291.329 363.512 290.469M435.266 239.241C435.266 239.241 429.931 235.778 427.205 232.816C425.073 230.5 424.238 228.895 422.496 226.272C418.501 220.253 413.637 210.031 413.637 210.031C413.637 210.031 409.361 200.133 405.257 194.668C402.726 191.297 401.447 189.121 398.035 186.647C394.651 184.195 388.258 182.298 388.258 182.298C388.258 182.298 381.986 181.14 377.923 181.101C375.028 181.073 372.911 181.201 370.629 181.545" stroke="#282828" stroke-width="4" stroke-linecap="round"/>
<path d="M337.071 73.2312C337.071 73.2312 337.206 79.5897 338.289 83.4667C339.136 86.4992 340.06 88.0541 341.373 90.9155C344.387 97.4815 350.517 106.998 350.517 106.998C350.517 106.998 356.681 115.845 359.167 122.211C360.7 126.137 361.877 128.37 362.183 132.574C362.487 136.742 360.734 143.176 360.734 143.176C360.734 143.176 358.416 149.118 356.31 152.593C354.45 155.663 353.016 157.589 350.963 159.841M336.309 72.903C336.309 72.903 330.861 76.1841 327.004 77.3387C323.988 78.2418 322.18 78.2908 319.059 78.7082C311.898 79.666 300.579 79.565 300.579 79.565C300.579 79.565 289.808 79.078 283.098 80.3756C278.959 81.1759 276.443 81.3734 272.725 83.3592C269.039 85.3279 264.535 90.2459 264.535 90.2459C264.535 90.2459 260.749 95.3788 258.935 99.0147C257.643 101.606 256.832 103.564 256.142 105.767" stroke="#282828" stroke-width="4" stroke-linecap="round"/>
<path d="M145.335 75.5128C145.335 75.5128 150.753 78.8443 154.598 80.0347C157.606 80.9657 159.413 81.0314 162.53 81.4778C169.682 82.502 181.001 82.5061 181.001 82.5061C181.001 82.5061 191.777 82.119 198.474 83.4788C202.605 84.3175 205.12 84.5384 208.819 86.5586C212.487 88.5614 216.945 93.521 216.945 93.521C216.945 93.521 220.683 98.6888 222.463 102.341C224.035 105.568 224.877 107.817 225.658 110.763M144.646 75.9752C144.646 75.9752 144.452 82.3322 143.333 86.199C142.458 89.2234 141.52 90.7697 140.18 93.6188C137.105 100.157 130.887 109.616 130.887 109.616C130.887 109.616 124.642 118.405 122.097 124.748C120.527 128.66 119.33 130.882 118.984 135.083C118.642 139.248 120.335 145.698 120.335 145.698C120.335 145.698 122.598 151.661 124.671 155.155C126.149 157.645 127.356 159.388 128.834 161.161" stroke="#282828" stroke-width="4" stroke-linecap="round"/>
<path d="M50.8093 245.792C50.8093 245.792 56.0097 242.131 58.6221 239.068C60.6653 236.673 61.4396 235.038 63.0807 232.351C66.8463 226.185 71.3208 215.788 71.3208 215.788C71.3208 215.788 75.221 205.735 79.1155 200.119C81.5175 196.656 82.7135 194.433 86.0306 191.832C89.3191 189.254 95.6362 187.117 95.6362 187.117C95.6362 187.117 101.86 185.724 105.919 185.531C109.504 185.361 111.903 185.476 114.917 185.922M50.9622 246.608C50.9622 246.608 56.7257 249.297 59.8362 251.852C62.2691 253.85 63.319 255.323 65.4072 257.68C70.199 263.087 76.4333 272.535 76.4333 272.535C76.4333 272.535 82.0415 281.744 86.8634 286.587C89.8375 289.574 91.406 291.552 95.129 293.528C98.8198 295.488 105.414 296.48 105.414 296.48C105.414 296.48 111.787 296.756 115.816 296.231C118.687 295.858 120.765 295.437 122.977 294.78" stroke="#282828" stroke-width="4" stroke-linecap="round"/>
<path d="M69.854 335.386C69.854 335.386 72.9497 329.83 73.9737 325.937C74.7746 322.892 74.7626 321.083 75.0746 317.95C75.7906 310.761 75.3083 299.452 75.3083 299.452C75.3083 299.452 74.4586 288.703 75.5293 281.953C76.0829 278.464 75.9282 277.127 77.0635 274.235M70.3456 336.054C70.3456 336.054 76.7051 335.975 80.6164 336.926C83.6756 337.671 85.2608 338.542 88.1649 339.758C94.8287 342.55 104.546 348.355 104.546 348.355C104.546 348.355 113.596 354.217 120.042 356.487C121.772 357.096 123.179 357.649 124.563 358.092" stroke="#282828" stroke-width="4" stroke-linecap="round"/>
<path d="M69.8911 144.729C69.8911 144.729 76.2505 144.641 80.1354 143.587C83.174 142.762 84.7358 141.85 87.6069 140.558C94.1951 137.592 103.757 131.534 103.757 131.534C103.757 131.534 112.649 125.436 119.034 122.997C122.334 121.737 123.564 121.234 123.564 121.234M77.5635 201.234C76.3158 194.515 75.9538 181.267 75.9538 181.267C75.9538 181.267 76.1388 169.948 75.2342 162.781C74.8399 159.657 74.8044 157.848 73.9238 154.826C72.7978 150.961 69.5573 145.488 69.5573 145.488" stroke="#282828" stroke-width="4" stroke-linecap="round"/>
<path d="M284.066 78.8886C278.81 74.5203 269.136 69.7605 269.136 69.7605C269.136 69.7605 259.166 64.3985 253.352 60.1108C250.818 58.2423 249.256 57.3287 247.048 55.0848C244.224 52.216 241.029 46.7168 241.029 46.7168M240.203 46.7982C240.203 46.7982 237.023 52.306 234.207 55.1824C232.004 57.4322 230.446 58.35 227.917 60.2254C222.113 64.5287 212.159 69.9175 212.159 69.9175C212.159 69.9175 202.497 74.7034 197.253 79.0857C195.845 80.2616 194.652 81.1891 193.563 82.153" stroke="#282828" stroke-width="4" stroke-linecap="round"/>
<path d="M406.408 144.706C406.408 144.706 403.032 150.096 401.811 153.932C400.855 156.932 400.775 158.739 400.303 161.852C399.221 168.995 399.125 180.314 399.125 180.314C399.125 180.314 399.285 183.136 399.125 187.235M359.063 121.735C365.385 124.331 372.423 129.981 372.423 129.981C372.423 129.981 381.832 136.276 388.344 139.403C391.182 140.767 392.721 141.718 395.738 142.617C399.596 143.768 405.951 144.013 405.951 144.013" stroke="#282828" stroke-width="4" stroke-linecap="round"/>
<path d="M360.941 361.638C367.225 358.95 375.871 352.507 375.871 352.507C375.871 352.507 385.187 346.077 391.653 342.855C394.471 341.451 395.996 340.478 399 339.535C402.84 338.328 409.191 337.991 409.191 337.991M400.329 284.273C401.84 290.938 401.697 301.72 401.697 301.72C401.697 301.72 401.957 313.036 403.143 320.163C403.66 323.269 403.766 325.075 404.765 328.06C406.042 331.878 409.495 337.219 409.495 337.219" stroke="#282828" stroke-width="4" stroke-linecap="round"/>
<path d="M198.614 401.81C203.724 406.349 213.238 411.423 213.238 411.423C213.238 411.423 223.026 417.109 228.697 421.586C231.168 423.536 232.698 424.501 234.832 426.816C237.56 429.776 240.573 435.377 240.573 435.377M285.388 404.462C280.003 408.669 270.189 413.136 270.189 413.136C270.189 413.136 260.063 418.195 254.122 422.306C251.532 424.097 249.944 424.963 247.669 427.14C244.76 429.922 241.401 435.322 241.401 435.322" stroke="#282828" stroke-width="4" stroke-linecap="round"/>
<path d="M270.899 315.231C270.899 315.231 274.716 320.92 277.711 324.096C280.896 327.472 282.88 329.249 286.746 331.818C290.13 334.066 295.971 336.63 295.971 336.63C295.971 336.63 302.326 338.65 306.503 338.52C310.716 338.389 312.996 337.306 316.983 335.938C323.447 333.719 332.543 327.93 332.543 327.93C332.543 327.93 342.307 322.202 348.993 319.464C351.907 318.271 353.499 317.413 356.564 316.693C360.482 315.772 366.841 315.902 366.841 315.902M322.306 230.362C322.306 230.362 329.114 231.12 333.315 232.311C337.78 233.577 340.273 234.517 344.336 236.76C347.893 238.724 352.864 242.72 352.864 242.72C352.864 242.72 357.59 247.425 359.403 251.19C361.232 254.988 361.325 257.51 361.952 261.678C362.969 268.436 362.033 279.178 362.033 279.178C362.033 279.178 361.461 290.483 362.119 297.678C362.406 300.813 362.38 302.622 363.157 305.673C364.15 309.574 367.201 315.155 367.201 315.155" stroke="#282828" stroke-width="4" stroke-linecap="round"/>
<path d="M291.403 177.296C291.403 177.296 294.306 171.091 295.48 166.886C296.728 162.415 297.226 159.799 297.43 155.162C297.61 151.103 296.791 144.777 296.791 144.777C296.791 144.777 295.241 138.291 292.974 134.781C290.687 131.24 288.583 129.846 285.353 127.137C280.117 122.746 270.463 117.943 270.463 117.943C270.463 117.943 260.518 112.537 254.722 108.223C252.196 106.343 250.639 105.423 248.44 103.169C245.629 100.288 242.459 94.7747 242.459 94.7747M192.18 177.069C192.18 177.069 189.315 170.847 188.167 166.634C186.946 162.156 186.465 159.537 186.289 154.899C186.135 150.838 186.992 144.518 186.992 144.518C186.992 144.518 188.583 138.042 190.872 134.545C193.18 131.019 195.293 129.638 198.539 126.949C203.803 122.59 213.486 117.847 213.486 117.847C213.486 117.847 223.464 112.502 229.287 108.225C231.824 106.361 233.387 105.45 235.599 103.21C238.428 100.346 241.633 94.8524 241.633 94.8524" stroke="#282828" stroke-width="4" stroke-linecap="round"/>
<path d="M240.897 392.221C240.897 392.221 237.759 386.689 234.966 383.791C232.781 381.524 231.229 380.594 228.715 378.699C222.945 374.351 213.033 368.885 213.033 368.885C213.033 368.885 203.408 364.024 198.198 359.601C194.985 356.873 192.889 355.466 190.624 351.911C188.378 348.387 186.867 341.892 186.867 341.892C186.867 341.892 186.676 340.347 186.508 338.293M241.723 392.149C241.723 392.149 244.961 386.675 247.807 383.828C250.033 381.601 251.601 380.7 254.149 378.851C259.997 374.609 270.008 369.324 270.008 369.324C270.008 369.324 279.72 364.64 285.009 360.313C288.272 357.644 290.393 356.275 292.723 352.763C295.032 349.28 295.864 346.916 296.662 342.814C297.005 341.047 296.954 340.756 297.18 338.235" stroke="#282828" stroke-width="4" stroke-linecap="round"/>
<path d="M110.799 166.061C110.799 166.061 117.156 166.271 121.086 165.401C124.16 164.72 125.763 163.882 128.692 162.726C135.412 160.073 145.247 154.47 145.247 154.47C145.247 154.47 154.417 148.797 160.908 146.661C164.912 145.344 167.206 144.29 171.421 144.213C175.599 144.136 181.928 146.237 181.928 146.237C181.928 146.237 183.346 146.881 185.185 147.809M110.43 166.803C110.43 166.803 113.41 172.422 114.353 176.335C115.091 179.396 115.042 181.204 115.289 184.343C115.856 191.546 115.139 202.843 115.139 202.843C115.139 202.843 114.067 213.572 114.998 220.342C115.572 224.518 115.632 227.041 117.413 230.862C119.178 234.65 123.844 239.414 123.844 239.414C123.844 239.414 126.199 241.358 128.821 243.221" stroke="#282828" stroke-width="4" stroke-linecap="round"/>
<path d="M373.636 169.716C373.636 169.716 370.407 175.195 369.289 179.062C368.415 182.087 368.383 183.896 367.996 187.02C367.106 194.19 367.315 205.508 367.315 205.508C367.315 205.508 367.904 216.274 366.671 222.996C365.91 227.142 365.736 229.66 363.786 233.397C361.853 237.101 356.978 241.652 356.978 241.652C356.978 241.652 355.733 242.588 354.038 243.758M373.161 169.036C373.161 169.036 366.801 168.962 362.914 167.916C359.874 167.097 358.31 166.188 355.436 164.902C348.842 161.951 339.267 155.912 339.267 155.912C339.267 155.912 330.362 149.833 323.973 147.408C320.032 145.912 317.788 144.757 313.581 144.49C309.411 144.226 302.993 146.041 302.993 146.041C302.993 146.041 300.159 147.178 297.268 148.587" stroke="#282828" stroke-width="4" stroke-linecap="round"/>
</svg>
