<svg width="485" height="471" viewBox="0 0 485 471" fill="none" xmlns="http://www.w3.org/2000/svg">
<circle cx="242.429" cy="236" r="164" stroke="#282828" stroke-width="4"/>
<circle cx="241.929" cy="236.5" r="135.5" stroke="#282828" stroke-width="4"/>
<path d="M241.929 468.5C238.885 461.576 233.351 457.518 227.929 452.5C218.737 443.993 207.703 436.97 196.429 431.5L196.178 431.379C190.467 428.608 185.249 426.077 179.929 422.5C175.748 419.69 171.247 416.864 167.929 413C165.812 410.535 164.707 408.989 163.429 406C159.965 397.901 161.429 388.532 161.429 380M242.429 468.5C245.474 461.576 251.008 457.518 256.429 452.5C265.622 443.993 276.655 436.97 287.929 431.5L288.18 431.379C293.892 428.608 299.109 426.077 304.429 422.5C308.611 419.69 313.112 416.864 316.429 413C318.547 410.535 319.651 408.989 320.929 406C324.393 397.901 322.929 388.532 322.929 380" stroke="#282828" stroke-width="4" stroke-linecap="round"/>
<path d="M441.088 355.536C433.592 354.521 427.243 357.125 420.134 359.133C408.08 362.537 396.333 368.287 385.785 375.051L385.55 375.202C380.207 378.629 375.326 381.76 369.499 384.433C364.919 386.534 360.161 388.899 355.134 389.715C351.926 390.235 350.03 390.37 346.814 389.902C338.097 388.632 332.208 383.451 324.929 379.001M441.349 355.109C437.03 348.9 436.455 342.062 435.002 334.818C432.54 322.537 432.304 309.461 433.519 296.989L433.547 296.711C434.162 290.393 434.725 284.622 434.449 278.217C434.232 273.183 434.17 267.869 432.605 263.024C431.606 259.931 430.863 258.182 428.98 255.533C423.877 248.352 414.208 243.451 406.929 239" stroke="#282828" stroke-width="4" stroke-linecap="round"/>
<path d="M443.861 119.202C439.418 125.324 438.706 132.149 437.109 139.362C434.401 151.591 433.904 164.661 434.869 177.154L434.89 177.432C435.379 183.761 435.826 189.543 435.422 195.941C435.105 200.969 434.935 206.281 433.274 211.094C432.213 214.166 431.435 215.901 429.5 218.511C424.254 225.588 415.296 230.196 407.929 234.5M443.608 118.771C436.094 119.635 429.798 116.905 422.731 114.755C410.747 111.11 399.118 105.126 388.707 98.1515L388.476 97.9961C383.202 94.4627 378.384 91.2349 372.613 88.4456C368.076 86.2534 363.365 83.793 358.356 82.8774C355.159 82.293 353.267 82.1193 350.042 82.5235C341.301 83.6189 333.951 89.6093 326.584 93.9135" stroke="#282828" stroke-width="4" stroke-linecap="round"/>
<path d="M242.737 2.0005C245.781 8.92476 251.315 12.9827 256.736 18.0005C265.929 26.5083 276.963 33.5308 288.237 39.0005L288.488 39.1224C294.199 41.893 299.416 44.4241 304.737 48.0005C308.918 50.8115 313.419 53.6373 316.737 57.5005C318.854 59.9659 319.959 61.5125 321.237 64.5005C324.7 72.6002 322.929 83.4688 322.929 92.0005M242.236 2.0005C239.192 8.92476 233.658 12.9827 228.236 18.0005C219.044 26.5083 208.01 33.5308 196.736 39.0005L196.485 39.1224C190.774 41.893 185.557 44.4241 180.236 48.0005C176.055 50.8115 171.554 53.6373 168.236 57.5005C166.119 59.9659 165.014 61.5125 163.736 64.5005C160.273 72.6002 162.429 83.4688 162.429 92.0005" stroke="#282828" stroke-width="4" stroke-linecap="round"/>
<path d="M41.6556 118.65C49.1674 119.537 55.4709 116.825 62.5449 114.696C74.539 111.086 86.1864 105.137 96.6171 98.1931L96.8495 98.0384C102.134 94.5205 106.961 91.3069 112.741 88.5348C117.284 86.3559 122.001 83.9095 127.013 83.0087C130.212 82.4338 132.105 82.2657 135.329 82.6793C144.066 83.8006 151.399 89.8127 158.753 94.1386M41.4021 119.081C45.8265 125.216 46.5183 132.043 48.0942 139.26C50.7661 151.498 51.2245 164.568 50.2226 177.059L50.2003 177.337C49.6925 183.665 49.2286 189.445 49.6136 195.844C49.9163 200.873 50.0698 206.185 51.7174 211.004C52.7688 214.079 53.5416 215.815 55.4691 218.432C60.6941 225.524 70.0757 230.675 77.4293 235" stroke="#282828" stroke-width="4" stroke-linecap="round"/>
<path d="M42.1691 355.906C46.5256 349.723 47.1418 342.888 48.6379 335.654C51.1744 323.388 51.4884 310.313 50.3485 297.834L50.3231 297.556C49.7455 291.235 49.2178 285.46 49.5321 279.057C49.7791 274.025 49.874 268.711 51.4682 263.875C52.4856 260.788 53.2391 259.044 55.1376 256.406C60.2839 249.256 70.6239 244.407 77.9293 240M42.4274 356.334C49.929 355.365 56.262 358.007 63.3591 360.058C75.3924 363.534 87.1047 369.355 97.6116 376.183L97.8457 376.335C103.168 379.794 108.03 382.954 113.841 385.662C118.408 387.791 123.152 390.185 128.174 391.03C131.379 391.57 133.273 391.717 136.492 391.268C145.217 390.05 152.483 383.957 159.788 379.55" stroke="#282828" stroke-width="4" stroke-linecap="round"/>
<circle cx="242.429" cy="205" r="104" stroke="#282828" stroke-width="4"/>
</svg>
