<svg width="469" height="287" viewBox="0 0 469 287" fill="none" xmlns="http://www.w3.org/2000/svg">
<path d="M310 262.982C310 262.982 319.525 267.714 326.051 269.495C332.172 271.165 335.779 271.484 342.102 272C349.131 272.574 353.302 273.642 360.16 272C367.487 270.246 377.214 262.982 377.214 262.982C377.214 262.982 386.589 253.639 391.76 246.951C396.774 240.467 399.296 236.57 403.297 229.417C407.101 222.618 411.824 211.382 411.824 211.382L421.355 192.845C425.664 185.607 428.08 181.548 432.39 174.309C436.699 167.07 438.271 165.883 442.923 161.284C446.881 157.371 453.958 152.266 453.958 152.266L467 143.75C467 143.75 458.946 138.088 453.958 134.231C448.128 129.722 444.19 127.819 439.412 122.207C436.21 118.446 429.5 109 429.5 109L423.361 98.6615L416.339 85.636C416.339 85.636 412.095 77.0681 409.316 71.6086C406.418 65.9145 404.982 62.6163 401.792 57.0802C398.187 50.8243 396.069 47.3435 391.76 41.5499C388.111 36.6431 386.231 33.6646 381.728 29.5264C377.807 25.9221 375.372 24.0556 370.693 21.5108C365.034 18.4326 361.502 17.0417 355.144 16C349.345 15.0499 345.941 15.396 340.096 16C335.739 16.4502 333.338 17.0596 329.061 18.0039C322.109 19.5388 318.71 22.2057 312.5 25.5" stroke="#282828" stroke-width="4" stroke-linecap="round" stroke-linejoin="round"/>
<path d="M159 263.572C159 263.572 149.475 268.304 142.949 270.085C136.828 271.755 133.221 272.073 126.898 272.59C119.869 273.164 115.698 274.232 108.84 272.59C101.513 270.836 91.7859 263.572 91.7859 263.572C91.7859 263.572 82.4108 254.229 77.2396 247.541C72.2256 241.057 69.7045 237.16 65.7029 230.007C61.8995 223.207 57.1757 211.971 57.1757 211.971L47.6454 193.435C43.3359 186.196 40.9197 182.138 36.6102 174.899C32.3007 167.66 30.7291 166.473 26.0767 161.874C22.1187 157.961 15.0415 152.856 15.0415 152.856L2 144.339C2 144.339 10.0537 138.678 15.0415 134.821C20.8716 130.312 24.8099 128.409 29.5879 122.797C32.7903 119.036 39.5 109.59 39.5 109.59L45.639 99.2513L52.6613 86.2259C52.6613 86.2259 56.9046 77.658 59.6837 72.1985C62.5822 66.5044 64.0176 63.2061 67.2077 57.6701C70.8126 51.4141 72.9306 47.9333 77.2396 42.1398C80.8891 37.2329 82.7691 34.2544 87.2716 30.1163C91.1932 26.5119 93.6276 24.6455 98.3067 22.1006C103.966 19.0225 107.498 17.6315 113.856 16.5899C119.655 15.6397 123.059 15.9859 128.904 16.5899C133.261 17.04 135.662 17.6494 139.939 18.5938C146.891 20.1286 152.79 22.2057 159 25.5" stroke="#282828" stroke-width="4" stroke-linecap="round" stroke-linejoin="round"/>
<path d="M352.5 75H117L235.5 282L352.5 75Z" stroke="#282828" stroke-width="4" stroke-linejoin="round"/>
<path d="M235 2C311.169 2 373 65.3049 373 143.5C373 221.695 311.169 285 235 285C158.831 285 97 221.695 97 143.5C97 65.3049 158.831 2 235 2Z" stroke="#282828" stroke-width="4"/>
</svg>
